<?xml version="1.0" standalone="no"?>
<!DOCTYPE svg PUBLIC "-//W3C//DTD SVG 20010904//EN"
 "http://www.w3.org/TR/2001/REC-SVG-20010904/DTD/svg10.dtd">
<svg version="1.0" xmlns="http://www.w3.org/2000/svg"
 width="250.000000pt" height="250.000000pt" viewBox="0 0 250.000000 250.000000"
 preserveAspectRatio="xMidYMid meet">
<metadata>
Created by potrace 1.11, written by Peter Selinger 2001-2013
</metadata>
<g transform="translate(0.000000,250.000000) scale(0.100000,-0.100000)"
fill="#000000" stroke="none">
<path d="M1463 2494 c17 -29 24 -161 13 -239 -20 -145 -81 -267 -289 -578
-213 -316 -287 -473 -316 -662 -16 -109 -10 -256 15 -318 6 -17 3 -17 -36 3
-49 25 -114 46 -191 60 -67 13 -289 22 -289 12 0 -4 15 -16 34 -26 33 -18 129
-109 179 -171 13 -16 67 -95 120 -175 110 -166 155 -216 249 -277 71 -46 213
-98 299 -110 105 -15 370 -7 439 12 10 3 -31 52 -125 148 -244 249 -356 443
-357 615 -1 76 8 115 44 187 44 89 89 144 255 310 165 165 205 213 252 296 51
91 68 154 69 256 2 215 -115 436 -338 638 -18 17 -30 25 -27 19z m-180 -2272
c76 -52 227 -125 330 -160 69 -23 80 -31 35 -27 -156 16 -286 75 -383 174 -46
48 -40 52 18 13z"/>
<path d="M1860 1910 c9 -33 7 -197 -3 -239 -33 -130 -98 -227 -277 -411 -140
-145 -208 -256 -225 -371 -45 -289 93 -600 359 -814 28 -22 47 -33 44 -25 -4
8 -18 42 -31 75 -50 121 -74 218 -73 292 2 122 42 150 219 154 50 1 101 6 113
11 30 14 46 45 46 95 0 32 6 50 24 70 28 30 29 36 9 53 -13 10 -12 15 8 30 21
18 22 19 5 48 -28 48 -23 66 24 88 24 10 44 27 46 37 2 9 -19 56 -46 105 -92
160 -103 217 -73 384 29 162 -29 322 -157 432 l-21 18 9 -32z"/>
</g>
</svg>
