<svg xmlns="http://www.w3.org/2000/svg" xmlns:xlink="http://www.w3.org/1999/xlink" width="31" height="270" viewBox="0 0 31 270"><svg fill="#565656" height="26" viewBox="0 0 24 24" width="26" id="account" y="0"><path d="M0 0h24v24H0z" fill="none"></path><path d="M16.5 12c1.38 0 2.49-1.12 2.49-2.5S17.88 7 16.5 7a2.5 2.5 0 0 0 0 5zM9 11c1.66 0 2.99-1.34 2.99-3S10.66 5 9 5C7.34 5 6 6.34 6 8s1.34 3 3 3zm7.5 3c-1.83 0-5.5.92-5.5 2.75V19h11v-2.25c0-1.83-3.67-2.75-5.5-2.75zM9 13c-2.33 0-7 1.17-7 3.5V19h7v-2.25c0-.85.33-2.34 2.37-3.47C10.5 13.1 9.66 13 9 13z"></path></svg><svg fill="#232323" height="16" viewBox="0 0 24 24" width="16" id="arrow" y="26"><path d="M8.59 16.34l4.58-4.59-4.58-4.59L10 5.75l6 6-6 6z"></path><path d="M0-.25h24v24H0z" fill="none"></path></svg><svg fill="#ffba03" height="26" viewBox="0 0 24 24" width="26" id="check" y="42"><path d="M0 0h24v24H0z" fill="none"></path><path d="M9 16.17L4.83 12l-1.42 1.41L9 19 21 7l-1.41-1.41z"></path></svg><svg fill="#ffba03" height="19" viewBox="0 0 24 24" width="19" id="check-small" y="68"><path d="M0 0h24v24H0z" fill="none"></path><path d="M9 16.17L4.83 12l-1.42 1.41L9 19 21 7l-1.41-1.41z"></path></svg><svg fill="#ffba03" height="31" viewBox="0 0 24 24" width="31" id="location" y="87"><path d="M12 2C8.13 2 5 5.13 5 9c0 5.25 7 13 7 13s7-7.75 7-13c0-3.87-3.13-7-7-7zm0 9.5a2.5 2.5 0 0 1 0-5 2.5 2.5 0 0 1 0 5z"></path><path d="M0 0h24v24H0z" fill="none"></path></svg><svg fill="#565656" height="26" viewBox="0 0 24 24" width="26" id="phone" y="118"><path d="M0 0h24v24H0z" fill="none"></path><path d="M6.62 10.79c1.44 2.83 3.76 5.14 6.59 6.59l2.2-2.2c.27-.27.67-.36 1.02-.24 1.12.37 2.33.57 3.57.57.55 0 1 .45 1 1V20c0 .55-.45 1-1 1-9.39 0-17-7.61-17-17 0-.55.45-1 1-1h3.5c.55 0 1 .45 1 1 0 1.25.2 2.45.57 3.57.11.35.03.74-.25 1.02l-2.2 2.2z"></path></svg><svg version="1" width="23" height="23" viewBox="0 0 1651.000000 1550.000000" id="sber" y="144"><path d="M1130 1c0 .5-1.8 1-4 1-3.3 0-4 .3-4 2 0 1.3-.7 2-2 2s-2 .7-2 1.9c0 1.6-.8 2-4.2 2.3-3.6.2-4.4.7-4.6 2.5-.3 1.9-1 2.3-4.3 2.3-3.2 0-3.9.3-3.9 2 0 1.3-.7 2-2 2s-2 .7-2 2c0 1.7-.7 2-4 2s-4 .3-4 2-.7 2-4.5 2-4.5.3-4.5 2-.7 2-4 2-4 .3-4 2c0 1.3-.7 2-2 2-1.5 0-2 .7-2 2.5 0 2.3-.4 2.5-4.5 2.5-3.8 0-4.5.3-4.5 2s-.7 2-4 2-4 .3-4 2-.7 2-4 2-4 .3-4 2c0 1.3-.7 2-2 2s-2 .7-2 2c0 1.7-.7 2-4.5 2s-4.5.3-4.5 2-.7 2-4 2c-3.6 0-4 .2-4 2.5 0 2.2-.4 2.5-4 2.5-3.3 0-4 .3-4 2 0 1.5-.7 2-2.5 2s-2.5.5-2.5 2c0 1.7-.7 2-4 2s-4 .3-4 2-.7 2-4 2-4 .3-4 2-.7 2-4.1 2c-3.2 0-4.2.4-4.6 1.9-.3 1.1-1.3 2.1-2.4 2.4-1.1.3-1.9 1.4-1.9 2.6 0 1.8-.6 2.1-4 2.1-3.3 0-4 .3-4 2s-.7 2-4 2-4 .3-4 2c0 1.5-.7 2-2.5 2s-2.5.5-2.5 2c0 1.7-.7 2-4 2s-4 .3-4 2-.7 2-4 2-4 .3-4 1.9c0 1.6-.8 2-4.2 2.3-3.6.2-4.4.7-4.6 2.5-.2 1.5-1 2.3-2.3 2.3-1.2 0-1.9.7-1.9 2 0 1.7-.7 2-4 2s-4 .3-4 2-.7 2-4 2-4 .3-4 2-.7 2-4.5 2-4.5.3-4.5 2c0 1.3-.7 2-2 2s-2 .7-2 2c0 1.7-.7 2-4 2-3.6 0-4 .2-4 2.5s-.4 2.5-4.5 2.5c-3.8 0-4.5.3-4.5 2s-.7 2-4 2-4 .3-4 2c0 1.3-.7 2-2 2s-2 .7-2 2c0 1.7-.7 2-4 2s-4 .3-4 2-.7 2-4.5 2-4.5.3-4.5 2-.7 2-4 2c-3.6 0-4 .2-4 2.5 0 1.8-.5 2.5-2 2.5-1.3 0-2 .7-2 2 0 1.7-.7 2-4.5 2s-4.5.3-4.5 2-.7 2-4 2-4 .3-4 2c0 1.3-.7 2-2 2s-2 .7-2 2c0 1.7-.7 2-4 2s-4 .3-4 1.9c0 1.6-.8 2-4.2 2.3-3.6.2-4.4.7-4.6 2.5-.3 1.9-1 2.3-4.3 2.3-3.2 0-3.9.3-3.9 2 0 1.3-.7 2-2 2s-2 .7-2 2c0 1.7-.7 2-4.5 2s-4.5.3-4.5 2-.7 2-4 2-4 .3-4 2-.7 2-4 2-4 .3-4 2c0 1.3-.7 2-2 2-1.5 0-2 .7-2 2.5 0 2.3-.4 2.5-4.5 2.5-3.8 0-4.5.3-4.5 2s-.7 2-4 2-4 .3-4 2-.7 2-4 2-4 .3-4 2c0 1.5-.7 2-2.5 2s-2.5.5-2.5 2c0 1.7-.7 2-4 2s-4 .3-4 2-.7 2-4 2c-3.6 0-4 .2-4 2.5s-.4 2.5-4.5 2.5c-3.8 0-4.5.3-4.5 2 0 1.3-.7 2-2 2s-2 .7-2 2c0 1.7-.7 2-4 2s-4 .3-4 2-.7 2-4 2-4 .3-4 2-.7 2-4.5 2-4.5.3-4.5 2c0 1.3-.7 2-2 2-1.5 0-2 .7-2 2.5 0 2.2-.4 2.5-4 2.5-3.3 0-4 .3-4 2s-.7 2-4.5 2-4.5.3-4.5 2c0 1.3-.7 2-2 2s-2 .7-2 2c0 1.7-.7 2-4 2s-4 .3-4 2-.7 2-4 2-4 .3-4 1.9c0 1.6-.8 2-4.2 2.3-3.6.2-4.4.7-4.6 2.5-.2 1.5-1 2.3-2.3 2.3-1.2 0-1.9.7-1.9 2 0 1.7-.7 2-4 2s-4 .3-4 2-.7 2-4.5 2-4.5.3-4.5 2-.7 2-4 2-4 .3-4 2c0 1.3-.7 2-2 2s-2 .7-2 2c0 1.7-.7 2-4 2-3.6 0-4 .2-4 2.5s-.4 2.5-4.5 2.5c-3.8 0-4.5.3-4.5 2s-.7 2-4 2-4 .3-4 2c0 1.3-.7 2-2 2s-2 .7-2 2c0 1.7-.7 2-4.5 2s-4.5.3-4.5 2-.7 2-4 2-4 .3-4 2-.7 2-4 2c-3.6 0-4 .2-4 2.5 0 1.8-.5 2.5-2 2.5-1.3 0-2 .7-2 2 0 1.7-.7 2-4.5 2s-4.5.3-4.5 2-.7 2-4 2-4 .3-4 2c0 1.3-.7 2-2 2s-2 .7-2 2-.7 2-1.9 2c-1 0-2.1-.9-2.4-2-.4-1.6-1.4-2-4.6-2-3.4 0-4.1-.3-4.1-2s-.7-2-4-2-4-.3-4-2-.7-2-4-2-4-.3-4-2c0-1.5-.7-2-2.5-2-2 0-2.5-.5-2.5-2.5 0-2.3-.4-2.5-4-2.5-3.3 0-4-.3-4-2s-.7-2-4-2-4-.3-4-2-.7-2-4.5-2-4.5-.3-4.5-2c0-1.3-.7-2-2-2s-2-.7-2-2c0-1.7-.7-2-4-2s-4-.3-4-2-.7-2-3.9-2c-3.3 0-4-.4-4.3-2.3-.2-1.8-1-2.3-4.6-2.5-3.4-.3-4.2-.7-4.2-2.3 0-1.2-.7-1.9-2-1.9s-2-.7-2-2c0-1.7-.7-2-4-2s-4-.3-4-2-.7-2-4.5-2-4.5-.3-4.5-2-.7-2-4-2-4-.3-4-2c0-1.3-.7-2-2-2-1.5 0-2-.7-2-2.5 0-2.2-.4-2.5-3.9-2.5-3 0-4-.4-4.4-2-.4-1.6-1.4-2-4.6-2-3.4 0-4.1-.3-4.1-2 0-1.3-.7-2-2-2s-2-.7-2-2c0-1.7-.7-2-4-2s-4-.3-4-2-.7-2-4.5-2-4.5-.3-4.5-2-.7-2-4-2c-3.6 0-4-.3-4-2.5 0-1.8-.5-2.5-2-2.5-1.3 0-2-.7-2-2 0-1.7-.7-2-3.9-2-3 0-4-.4-4.4-2-.4-1.6-1.4-2-4.6-2-3.4 0-4.1-.3-4.1-2s-.7-2-4-2-4-.3-4-2c0-1.3-.7-2-2-2s-2-.7-2-2c0-1.7-.7-2-4.5-2-4.1 0-4.5-.2-4.5-2.5s-.4-2.5-4-2.5c-3.3 0-4-.3-4-2s-.7-2-4-2-4-.3-4-2c0-1.3-.7-2-2-2s-2-.7-2-2c0-1.7-.7-2-4.5-2s-4.5-.3-4.5-2-.7-2-4-2-4-.3-4-2-.7-2-3.9-2c-3.3 0-4-.4-4.3-2.3-.2-1.4-1.1-2.3-2.6-2.5-1.4-.2-2.2-1-2.2-2.3 0-1.6-.7-1.9-4-1.9s-4-.3-4-2-.7-2-4-2-4-.3-4-2c0-1.8-.7-2-8.5-2s-8.5.2-8.5 2c0 1.3-.7 2-2 2s-2 .7-2 2-.7 2-2 2-2 .7-2 2-.7 2-2 2c-1.7 0-2 .7-2 4.5 0 4.1-.2 4.5-2.5 4.5-1.8 0-2.5.5-2.5 2 0 1.3-.7 2-2 2s-2 .7-2 2-.7 2-2 2-2 .7-2 2-.7 2-2 2c-1.7 0-2 .7-2 4.5s-.3 4.5-2 4.5c-1.3 0-2 .7-2 2s-.7 2-2 2-2 .7-2 2c0 1.5-.7 2-2.5 2-2.2 0-2.5.4-2.5 4 0 3.3-.3 4-2 4-1.3 0-2 .7-2 2s-.7 2-2 2c-1.5 0-2 .7-2 2.5s-.5 2.5-2 2.5c-1.7 0-2 .7-2 4s.3 4 2 4c1.3 0 2 .7 2 2 0 1.7.7 2 4 2s4 .3 4 2c0 1.5.7 2 2.5 2s2.5.5 2.5 2c0 1.7.7 2 4 2 3.6 0 4 .2 4 2.5 0 2.2.4 2.5 4 2.5 3.3 0 4 .3 4 2 0 1.3.7 2 2 2s2 .7 2 2c0 1.7.7 2 4.5 2s4.5.3 4.5 2 .7 2 4 2 4 .3 4 2 .7 2 4 2 4 .3 4 2c0 1.5.7 2 2.5 2 2 0 2.5.5 2.5 2.5 0 2.2.4 2.5 4 2.5 3.3 0 4 .3 4 2s.7 2 4 2 4 .3 4 2 .7 2 4.5 2 4.5.3 4.5 2c0 1.3.7 2 2 2s2 .7 2 2c0 1.7.7 2 4 2s4 .3 4 2 .7 2 3.9 2c3.3 0 4 .4 4.3 2.2.2 1.9 1 2.4 4.6 2.6 3.4.3 4.2.7 4.2 2.3 0 1.2.7 1.9 2 1.9s2 .7 2 2c0 1.7.7 2 4 2s4 .3 4 2 .7 2 4.5 2 4.5.3 4.5 2 .7 2 4 2 4 .3 4 2c0 1.3.7 2 2 2 1.5 0 2 .7 2 2.5 0 2.2.4 2.5 3.9 2.5 3 0 4 .4 4.4 2 .4 1.6 1.4 2 4.6 2 3.4 0 4.1.3 4.1 2 0 1.3.7 2 2 2s2 .7 2 2c0 1.7.7 2 4 2s4 .3 4 2 .7 2 4.5 2 4.5.3 4.5 2 .7 2 4 2c3.6 0 4 .2 4 2.5 0 1.8.5 2.5 2 2.5 1.3 0 2 .7 2 2 0 1.7.7 2 4 2s4 .3 4 2 .7 2 4.5 2 4.5.3 4.5 2 .7 2 4 2 4 .3 4 2c0 1.3.7 2 2 2s2 .7 2 2c0 1.7.7 2 4.5 2 4.1 0 4.5.2 4.5 2.5 0 2.2.4 2.5 4 2.5 3.3 0 4 .3 4 2s.7 2 4 2 4 .3 4 2c0 1.3.7 2 2 2s2 .7 2 2c0 1.7.7 2 4.5 2s4.5.3 4.5 2 .7 2 4 2 4 .3 4 2 .7 2 3.9 2c3.3 0 4 .4 4.3 2.2.2 1.5 1.1 2.4 2.6 2.6 1.4.2 2.2 1 2.2 2.3 0 1.6.7 1.9 4 1.9s4 .3 4 2 .7 2 4 2 4 .3 4 2c0 1.3.7 2 2 2s2 .7 2 2c0 1.7.7 2 4.5 2s4.5.3 4.5 2 .7 2 4 2c3.6 0 4 .2 4 2.5 0 2.2.4 2.5 3.9 2.5 3 0 4 .4 4.4 2 .4 1.6 1.4 2 4.6 2 3.4 0 4.1-.3 4.1-2s.7-2 4-2c3.6 0 4-.3 4-2.5 0-2.3.4-2.5 4-2.5 3.3 0 4-.3 4-2s.7-2 4.5-2 4.5-.3 4.5-2c0-1.3.7-2 2-2s2-.7 2-2c0-1.7.7-2 4-2s4-.3 4-2 .7-2 4.1-2c3.2 0 4.2-.4 4.6-1.9.4-1.4 1.5-2.1 4.2-2.3 2.9-.2 3.7-.8 3.9-2.6.2-1.4 1-2.2 2.3-2.2 1.2 0 1.9-.7 1.9-2 0-1.7.7-2 4-2s4-.3 4-2 .7-2 4.5-2 4.5-.3 4.5-2 .7-2 4-2 4-.3 4-2c0-1.3.7-2 2-2s2-.7 2-1.9c0-1.6.8-2 4.3-2.3 3.5-.2 4.3-.7 4.5-2.6.3-1.8 1-2.2 4.3-2.2 3.2 0 3.9-.3 3.9-2 0-1.3.7-2 2-2s2-.7 2-2c0-1.7.7-2 4-2s4-.3 4-2 .7-2 4.5-2 4.5-.3 4.5-2 .7-2 4-2 4-.3 4-2c0-1.3.7-2 2-2 1.5 0 2-.7 2-2.5 0-2.3.4-2.5 4.5-2.5 3.8 0 4.5-.3 4.5-2s.7-2 4-2 4-.3 4-2 .7-2 4-2 4-.3 4-2c0-1.3.7-2 2-2s2-.7 2-2c0-1.7.7-2 4.5-2s4.5-.3 4.5-2 .7-2 4-2c3.6 0 4-.3 4-2.5 0-2.3.4-2.5 4-2.5 3.3 0 4-.3 4-2 0-1.5.7-2 2.5-2s2.5-.5 2.5-2c0-1.7.7-2 4-2s4-.3 4-2 .7-2 4-2 4-.3 4-2 .7-2 4.1-2c3.2 0 4.2-.4 4.6-1.9.3-1.1 1.3-2.1 2.4-2.4 1.1-.3 1.9-1.4 1.9-2.6 0-1.8.6-2.1 4-2.1 3.3 0 4-.3 4-2s.7-2 4-2 4-.3 4-2c0-1.4.7-2 2.1-2 1.2 0 2.3-.8 2.6-2 .4-1.6 1.4-2 4.4-2 3.2 0 3.9-.3 3.9-2s.7-2 4-2 4-.3 4-1.9c0-1.6.8-2 4.3-2.3 3.5-.2 4.3-.7 4.5-2.6.2-1.4 1-2.2 2.3-2.2 1.2 0 1.9-.7 1.9-2 0-1.7.7-2 4-2s4-.3 4-2 .7-2 4-2 4-.3 4-2 .7-2 4.5-2 4.5-.3 4.5-2c0-1.3.7-2 2-2s2-.7 2-2c0-1.7.7-2 4-2 3.6 0 4-.3 4-2.5 0-2.3.4-2.5 4.5-2.5 3.8 0 4.5-.3 4.5-2s.7-2 4-2 4-.3 4-2c0-1.3.7-2 2-2s2-.7 2-2c0-1.7.7-2 4-2s4-.3 4-2 .7-2 4.5-2 4.5-.3 4.5-2 .7-2 4-2c3.6 0 4-.3 4-2.5 0-1.8.5-2.5 2-2.5 1.3 0 2-.7 2-2 0-1.7.7-2 4.5-2s4.5-.3 4.5-2 .7-2 4-2 4-.3 4-2c0-1.3.7-2 2-2s2-.7 2-2c0-1.7.7-2 4-2s4-.3 4-1.9c0-1.6.8-2 4.3-2.3 3.5-.2 4.3-.7 4.5-2.6.3-1.8 1-2.2 4.3-2.2 3.2 0 3.9-.3 3.9-2 0-1.3.7-2 2-2s2-.7 2-2c0-1.7.7-2 4.1-2 3.2 0 4.2-.4 4.6-2 .4-1.6 1.4-2 4.4-2 3.2 0 3.9-.3 3.9-2s.7-2 4-2 4-.3 4-2c0-1.3.7-2 2-2 1.5 0 2-.7 2-2.5 0-2.3.4-2.5 4.5-2.5 3.8 0 4.5-.3 4.5-2s.7-2 4-2 4-.3 4-2 .7-2 4-2 4-.3 4-2c0-1.4.7-2 2.1-2 1.2 0 2.3-.8 2.6-2 .4-1.6 1.4-2 4.4-2 3.2 0 3.9-.3 3.9-2s.7-2 4-2c3.6 0 4-.3 4-2.5 0-2.3.4-2.5 4.5-2.5 3.8 0 4.5-.3 4.5-2 0-1.3.7-2 2-2s2-.7 2-2c0-1.7.7-2 4-2s4-.3 4-2 .7-2 4-2 4-.3 4-2c0-1.4.7-2 2.1-2 1.2 0 2.3-.8 2.6-1.9.4-1.4 1.5-2.1 4.2-2.3 2.9-.2 3.7-.8 3.9-2.6.3-1.8 1-2.2 4.3-2.2 3.2 0 3.9-.3 3.9-2s.7-2 4.5-2 4.5-.3 4.5-2c0-1.3.7-2 2-2s2-.7 2-2c0-1.7.7-2 4-2s4-.3 4-2 .7-2 4-2 4-.3 4-1.9c0-1.6.8-2 4.3-2.3 3.5-.2 4.3-.7 4.5-2.6.2-1.4 1-2.2 2.3-2.2 1.2 0 1.9-.7 1.9-2 0-1.7.7-2 4-2s4-.3 4-2 .7-2 4.1-2c3.2 0 4.2-.4 4.6-2 .4-1.6 1.4-2 4.4-2 3.2 0 3.9-.3 3.9-2 0-1.3.7-2 2-2s2-.7 2-2c0-1.7.7-2 4-2 3.6 0 4-.3 4-2.5 0-2.3.4-2.5 4.5-2.5 3.8 0 4.5-.3 4.5-2s.7-2 4-2 4-.3 4-2c0-1.3.7-2 2-2s2-.7 2-2c0-1.7.7-2 4.1-2 3.2 0 4.2-.4 4.6-2 .4-1.6 1.4-2 4.4-2 3.2 0 3.9-.3 3.9-2 0-1.3.7-2 2-2 1.5 0 2-.7 2-2.5 0-2.3.4-2.5 4-2.5 3.3 0 4-.3 4-2s.7-2 4.5-2 4.5-.3 4.5-2 .7-2 4-2 4-.3 4-2c0-1.3.7-2 2-2s2-.7 2-2c0-1.7.7-2 4.1-2 3.2 0 4.2-.4 4.6-1.9.4-1.4 1.5-2.1 4.2-2.3 2.9-.2 3.7-.8 3.9-2.6.3-1.8 1-2.2 4.3-2.2 3.2 0 3.9-.3 3.9-2 0-1.3.7-2 2-2s2-.7 2-1.9c0-1.3.8-2.1 2.3-2.3 2-.3 2.2-.9 2.2-5.8v-5.5l-4.2-.3c-3.8-.3-4.3-.6-4.3-2.8 0-2.1-.4-2.4-4-2.4-3.3 0-4-.3-4-2s-.7-2-3.9-2c-3 0-4-.4-4.4-2-.3-1.2-1.4-2-2.6-2-1.4 0-2.1-.6-2.1-2 0-1.7-.7-2-4-2s-4-.3-4-2-.7-2-4-2-4-.3-4-2-.7-2-4.5-2c-4.1 0-4.5-.2-4.5-2.5s-.4-2.5-4-2.5c-3.3 0-4-.3-4-2 0-1.8-.7-2-5.9-2-5 0-5.9-.3-6.4-2-.4-1.6-1.4-2-4.6-2-2.3 0-4.1-.5-4.1-1 0-.6-4.8-1-12.5-1s-12.5.4-12.5 1z"></path><path d="M1309 100c0 1.7-.7 2-4 2s-4 .3-4 2c0 1.3-.7 2-2 2s-2 .7-2 2c0 1.7-.7 2-4 2-3.6 0-4 .2-4 2.5s-.4 2.5-4.5 2.5c-3.8 0-4.5.3-4.5 2s-.7 2-4 2-4 .3-4 2c0 1.3-.7 2-2 2s-2 .7-2 2c0 1.7-.7 2-4.5 2s-4.5.3-4.5 2-.7 2-4 2-4 .3-4 2-.7 2-4 2c-3.6 0-4 .2-4 2.5 0 1.8-.5 2.5-2 2.5-1.3 0-2 .7-2 2 0 1.7-.7 2-4.5 2s-4.5.3-4.5 2-.7 2-4 2-4 .3-4 2c0 1.3-.7 2-2 2s-2 .7-2 2c0 1.7-.7 2-4.1 2-3.2 0-4.2.4-4.6 2-.4 1.6-1.4 2-4.4 2-3.5 0-3.9.3-3.9 2.5s-.4 2.5-4 2.5c-3.3 0-4 .3-4 2 0 1.3-.7 2-2 2s-2 .7-2 2c0 1.7-.7 2-4.5 2s-4.5.3-4.5 2-.7 2-4 2-4 .3-4 2-.7 2-4 2-4 .3-4 1.9c0 1.3-.8 2.1-2.2 2.3-1.5.2-2.4 1.1-2.6 2.5-.3 1.9-1 2.3-4.3 2.3-3.2 0-3.9.3-3.9 2s-.7 2-4 2-4 .3-4 2-.7 2-4.5 2-4.5.3-4.5 2c0 1.3-.7 2-2 2s-2 .7-2 2c0 1.7-.7 2-4 2s-4 .3-4 2-.7 2-4 2c-3.6 0-4 .2-4 2.5s-.4 2.5-4.5 2.5c-3.8 0-4.5.3-4.5 2 0 1.3-.7 2-2 2s-2 .7-2 2c0 1.7-.7 2-4 2s-4 .3-4 2-.7 2-4.5 2-4.5.3-4.5 2c0 1.3-.7 2-2 2s-2 .7-2 2c0 1.7-.7 2-4 2-3.6 0-4 .2-4 2.5 0 2.2-.4 2.5-4 2.5-3.3 0-4 .3-4 2s-.7 2-4.5 2-4.5.3-4.5 2c0 1.3-.7 2-2 2s-2 .7-2 2c0 1.7-.7 2-4 2s-4 .3-4 2-.7 2-4.1 2c-3.2 0-4.2.4-4.6 2-.4 1.6-1.4 2-4.4 2-3.5 0-3.9.3-3.9 2.5 0 1.8-.5 2.5-2 2.5-1.3 0-2 .7-2 2 0 1.7-.7 2-4 2s-4 .3-4 2-.7 2-4.5 2-4.5.3-4.5 2-.7 2-4 2-4 .3-4 2c0 1.3-.7 2-2 2s-2 .7-2 1.9c0 1.6-.8 2-4.2 2.3-3.6.2-4.4.7-4.6 2.5-.3 1.9-1 2.3-4.3 2.3-3.2 0-3.9.3-3.9 2s-.7 2-4 2-4 .3-4 2c0 1.3-.7 2-2 2s-2 .7-2 2c0 1.7-.7 2-4.5 2s-4.5.3-4.5 2-.7 2-4 2-4 .3-4 2c0 1.3-.7 2-2 2-1.5 0-2 .7-2 2.5 0 2.3-.4 2.5-4.5 2.5-3.8 0-4.5.3-4.5 2s-.7 2-4 2-4 .3-4 2-.7 2-4 2-4 .3-4 2c0 1.3-.7 2-2 2s-2 .7-2 2c0 1.7-.7 2-4.5 2s-4.5.3-4.5 2-.7 2-4 2c-3.6 0-4 .2-4 2.5 0 2.2-.4 2.5-4 2.5-3.3 0-4 .3-4 2 0 1.5-.7 2-2.5 2s-2.5.5-2.5 2c0 1.7-.7 2-4 2s-4 .3-4 2-.7 2-4 2-4 .3-4 2-.7 2-4.1 2c-3.2 0-4.2.4-4.6 1.9-.3 1.1-1.3 2.1-2.4 2.4-1.1.3-1.9 1.4-1.9 2.6 0 1.8-.6 2.1-4 2.1-3.3 0-4 .3-4 2s-.7 2-4 2-4 .3-4 2-.7 2-4.5 2-4.5.3-4.5 2c0 1.3-.7 2-2 2s-2 .7-2 2c0 1.7-.7 2-4 2s-4 .3-4 1.9c0 1.6-.8 2-4.2 2.3-3.6.2-4.4.7-4.6 2.5-.2 1.5-1 2.3-2.3 2.3-1.2 0-1.9.7-1.9 2 0 1.7-.7 2-4 2s-4 .3-4 2-.7 2-4 2-4 .3-4 2-.7 2-4.5 2-4.5.3-4.5 2c0 1.3-.7 2-2 2s-2 .7-2 2c0 1.7-.7 2-4 2-3.6 0-4 .2-4 2.5s-.4 2.5-4.5 2.5c-3.8 0-4.5.3-4.5 2s-.7 2-4 2-4 .3-4 2c0 1.3-.7 2-2 2s-2 .7-2 2c0 1.7-.7 2-4 2s-4 .3-4 2-.7 2-4.5 2-4.5.3-4.5 2-.7 2-4 2c-3.6 0-4 .2-4 2.5 0 1.8-.5 2.5-2 2.5-1.3 0-2 .7-2 2 0 1.7-.7 2-4.5 2s-4.5.3-4.5 2-.7 2-4 2-4 .3-4 2-.7 2-4 2-4 .3-4 2c0 1.3-.7 2-2 2s-2 .7-2 1.9c0 1.6-.8 2-4.2 2.3-3.6.2-4.4.7-4.6 2.5-.3 1.9-1 2.3-4.3 2.3-3.2 0-3.9.3-3.9 2 0 1.3-.7 2-2 2s-2 .7-2 2c0 1.7-.7 2-4.5 2s-4.5.3-4.5 2-.7 2-4 2-4 .3-4 2-.7 2-4 2-4 .3-4 2c0 1.3-.7 2-2 2-1.5 0-2 .7-2 2.5 0 2.3-.4 2.5-4.5 2.5-3.8 0-4.5.3-4.5 2s-.7 2-4 2-4 .3-4 2-.7 2-4 2-4 .3-4 2c0 1.5-.7 2-2.5 2s-2.5.5-2.5 2c0 1.7-.7 2-4 2s-4 .3-4 2-.7 2-4 2c-3.6 0-4 .2-4 2.5s-.4 2.5-4.5 2.5c-3.8 0-4.5.3-4.5 2 0 1.3-.7 2-2 2s-2 .7-2 2c0 1.7-.7 2-4 2s-4 .3-4 2-.7 2-4 2-4 .3-4 2-.7 2-4.5 2-4.5.3-4.5 2c0 1.3-.7 2-2 2-1.5 0-2 .7-2 2.5 0 2.2-.4 2.5-4 2.5-3.3 0-4 .3-4 2s-.7 2-4.5 2-4.5.3-4.5 2c0 1.3-.7 2-2 2s-2 .7-2 2c0 1.7-.7 2-4 2s-4 .4-4 1.9-.9 2-4.2 2.2c-2.4.2-6.2.3-8.5.1-3.5-.3-4.3-.7-4.3-2.3 0-1.2-.7-1.9-2-1.9s-2-.7-2-2c0-1.7-.7-2-4-2s-4-.3-4-2-.7-2-4.5-2-4.5-.3-4.5-2-.7-2-4-2c-3.6 0-4-.3-4-2.5 0-1.8-.5-2.5-2-2.5-1.3 0-2-.7-2-2 0-1.7-.7-2-3.9-2-3 0-4-.4-4.4-2-.4-1.6-1.4-2-4.6-2-3.4 0-4.1-.3-4.1-2s-.7-2-4-2-4-.3-4-2c0-1.3-.7-2-2-2s-2-.7-2-2c0-1.7-.7-2-4.5-2-4.1 0-4.5-.2-4.5-2.5s-.4-2.5-4-2.5c-3.3 0-4-.3-4-2s-.7-2-4-2-4-.3-4-2c0-1.3-.7-2-2-2s-2-.7-2-2c0-1.7-.7-2-4.5-2s-4.5-.3-4.5-2-.7-2-4-2-4-.3-4-2c0-1.3-.7-2-1.9-2-1.3 0-2.1-.8-2.3-2.3-.2-1.8-1-2.3-4.5-2.5-3.5-.3-4.3-.7-4.3-2.3 0-1.6-.7-1.9-4-1.9s-4-.3-4-2-.7-2-4-2-4-.3-4-2c0-1.3-.7-2-2-2s-2-.7-2-2c0-1.7-.7-2-4.5-2s-4.5-.3-4.5-2-.7-2-4-2c-3.6 0-4-.3-4-2.5s-.4-2.5-3.9-2.5c-3 0-4-.4-4.4-2-.3-1.2-1.4-2-2.6-2-1.4 0-2.1-.6-2.1-2 0-1.7-.7-2-4-2s-4-.3-4-2-.7-2-4-2-4-.3-4-2-.7-2-4.5-2-4.5-.3-4.5-2c0-1.3-.7-2-2-2-1.5 0-2-.7-2-2.5 0-2.3-.4-2.5-4-2.5-3.3 0-4-.3-4-2s-.7-2-3.9-2c-3 0-4-.4-4.4-2-.4-1.6-1.4-2-4.6-2-3.4 0-4.1-.3-4.1-2 0-1.3-.7-2-2-2s-2-.7-2-2c0-1.7-.7-2-4-2s-4-.3-4-2-.7-2-4.5-2c-4.1 0-4.5-.2-4.5-2.5 0-1.8-.5-2.5-2-2.5-1.3 0-2-.7-2-2 0-1.7-.7-2-4-2s-4-.3-4-2-.7-2-4-2-4-.3-4-2-.7-2-4.5-2-4.5-.3-4.5-2c0-1.3-.7-2-2-2s-2-.7-2-2c0-1.7-.7-2-3.9-2-3.3 0-4-.4-4.3-2.3-.2-1.8-1-2.3-4.6-2.5-3.4-.3-4.2-.7-4.2-2.3 0-1.6-.7-1.9-4-1.9s-4-.3-4-2c0-1.3-.7-2-2-2s-2-.7-2-2c0-1.7-.7-2-4-2s-4-.3-4-2-.7-2-4.5-2-4.5-.3-4.5-2-.7-2-4-2c-3.6 0-4-.3-4-2.5 0-1.8-.5-2.5-2-2.5-1.3 0-2-.7-2-2 0-1.7-.7-2-4.5-2s-4.5-.3-4.5-2-.7-2-4-2-4-.3-4-2-.7-2-4-2-4-.3-4-2c0-1.3-.7-2-2-2s-2-.7-2-2c0-1.8-.7-2-6.5-2s-6.5.2-6.5 2c0 1.3-.7 2-2 2-1.7 0-2 .7-2 4s-.3 4-2 4c-1.3 0-2 .7-2 2s-.7 2-2 2c-1.7 0-2 .7-2 4.5 0 4.1-.2 4.5-2.5 4.5-2.2 0-2.5.4-2.5 4 0 3.3-.3 4-2 4s-2 .7-2 4-.3 4-2 4-2 .7-2 4.5-.3 4.5-2 4.5c-1.8 0-2 .7-2 6s-.2 6-2 6c-1.7 0-2 .7-2 4s-.3 4-2 4-2 .7-2 4.5c0 4.1-.2 4.5-2.5 4.5-2.2 0-2.5.4-2.5 4s.3 4 2.5 4c1.8 0 2.5.5 2.5 2 0 1.7.7 2 4 2s4 .3 4 2 .7 2 3.9 2c3.3 0 4 .4 4.3 2.2.2 1.9 1 2.4 4.6 2.6 3.4.3 4.2.7 4.2 2.3 0 1.2.7 1.9 2 1.9s2 .7 2 2c0 1.7.7 2 4 2s4 .3 4 2 .7 2 4 2 4 .3 4 2 .7 2 4.5 2 4.5.3 4.5 2c0 1.3.7 2 2 2 1.5 0 2 .7 2 2.5 0 2.2.4 2.5 4 2.5 3.3 0 4 .3 4 2s.7 2 4.5 2 4.5.3 4.5 2 .7 2 4 2 4 .3 4 2c0 1.3.7 2 2 2s2 .7 2 2c0 1.7.7 2 4 2s4 .3 4 2 .7 2 4.5 2c4.1 0 4.5.2 4.5 2.5 0 2.2.4 2.5 4 2.5 3.3 0 4 .3 4 2 0 1.3.7 2 2 2s2 .7 2 2c0 1.7.7 2 4.5 2s4.5.3 4.5 2 .7 2 4 2 4 .3 4 2c0 1.3.7 2 2 2s2 .7 2 2c0 1.7.7 2 3.9 2 3.3 0 4 .4 4.3 2.2.2 1.9 1 2.4 4.6 2.6 3.4.3 4.2.7 4.2 2.3 0 1.6.7 1.9 4 1.9s4 .3 4 2c0 1.3.7 2 2 2s2 .7 2 2c0 1.7.7 2 4.5 2s4.5.3 4.5 2 .7 2 4 2 4 .3 4 2 .7 2 4 2c3.4 0 4 .3 4 2.1 0 1.2.8 2.3 1.9 2.6 1.1.3 2.1 1.3 2.4 2.4.4 1.5 1.4 1.9 4.6 1.9 3.4 0 4.1.3 4.1 2s.7 2 4 2 4 .3 4 2 .7 2 4 2 4 .3 4 2c0 1.5.7 2 2.5 2s2.5.5 2.5 2c0 1.7.7 2 4 2 3.6 0 4 .2 4 2.5 0 2.2.4 2.5 4 2.5 3.3 0 4 .3 4 2s.7 2 4.5 2 4.5.3 4.5 2c0 1.3.7 2 2 2s2 .7 2 2c0 1.7.7 2 4 2s4 .3 4 2 .7 2 4 2 4 .3 4 2c0 1.5.7 2 2.5 2 2 0 2.5.5 2.5 2.5 0 2.2.4 2.5 4 2.5 3.3 0 4 .3 4 2s.7 2 4 2 4 .3 4 2 .7 2 4.5 2 4.5.3 4.5 2c0 1.3.7 2 2 2s2 .7 2 2c0 1.7.7 2 4 2s4 .3 4 2 .7 2 3.9 2c3.3 0 4 .4 4.3 2.2.2 1.9 1 2.4 4.5 2.6 3.5.3 4.3.7 4.3 2.3 0 1.2.7 1.9 2 1.9s2 .7 2 2c0 1.7.7 2 4 2s4 .3 4 2 .7 2 4.5 2 4.5.3 4.5 2 .7 2 4 2 4 .3 4 2c0 1.3.7 2 2 2 1.5 0 2 .7 2 2.5 0 2.2.4 2.5 3.9 2.5 3 0 4 .4 4.4 2 .4 1.6 1.4 2 4.6 2 3.4 0 4.1.3 4.1 2s.7 2 4 2 4 .3 4 2c0 1.3.7 2 2 2s2 .7 2 2c0 1.7.7 2 4.5 2s4.5.3 4.5 2 .7 2 4 2c3.6 0 4 .2 4 2.5 0 1.8.5 2.5 2 2.5 1.3 0 2 .7 2 2 0 1.9.7 2 12.5 2s12.5-.1 12.5-2c0-1.3.7-2 2-2 1.5 0 2-.7 2-2.5 0-2.3.4-2.5 4.5-2.5 3.8 0 4.5-.3 4.5-2s.7-2 4-2 4-.3 4-2 .7-2 4-2 4-.3 4-2c0-1.3.7-2 2-2s2-.7 2-2c0-1.7.7-2 4.5-2s4.5-.3 4.5-2 .7-2 4-2c3.6 0 4-.3 4-2.5 0-1.8.5-2.5 2-2.5 1.3 0 2-.7 2-2 0-1.7.7-2 4.5-2s4.5-.3 4.5-2 .7-2 4-2 4-.3 4-2 .7-2 4-2 4-.3 4-2c0-1.3.7-2 2-2s2-.7 2-1.9c0-1.6.8-2 4.3-2.3 3.5-.2 4.3-.7 4.5-2.6.3-1.8 1-2.2 4.3-2.2 3.2 0 3.9-.3 3.9-2s.7-2 4-2 4-.3 4-2c0-1.5.7-2 2.5-2s2.5-.5 2.5-2c0-1.7.7-2 4-2s4-.3 4-2 .7-2 4-2 4-.3 4-1.9c0-1.6.8-2 4.3-2.3 3.5-.2 4.3-.7 4.5-2.6.2-1.4 1-2.2 2.3-2.2 1.2 0 1.9-.7 1.9-2 0-1.7.7-2 4-2s4-.3 4-2 .7-2 4-2 4-.3 4-2 .7-2 4.5-2 4.5-.3 4.5-2c0-1.3.7-2 2-2s2-.7 2-2c0-1.7.7-2 4-2 3.6 0 4-.3 4-2.5 0-2.3.4-2.5 4.5-2.5 3.8 0 4.5-.3 4.5-2 0-1.3.7-2 2-2s2-.7 2-2c0-1.7.7-2 4-2s4-.3 4-2 .7-2 4-2 4-.3 4-2 .7-2 4.5-2c3.7 0 4.5-.3 4.5-1.9 0-1 .9-2.1 2-2.4 1.2-.3 2-1.4 2-2.6 0-1.8.6-2.1 4-2.1 3.3 0 4-.3 4-2s.7-2 4.5-2 4.5-.3 4.5-2 .7-2 4-2 4-.3 4-2c0-1.3.7-2 2-2s2-.7 2-2c0-1.7.7-2 4-2s4-.3 4-1.9c0-1.6.8-2 4.3-2.3 3.5-.2 4.3-.7 4.5-2.6.3-1.8 1-2.2 4.3-2.2 3.2 0 3.9-.3 3.9-2 0-1.3.7-2 2-2s2-.7 2-2c0-1.7.7-2 4.1-2 3.2 0 4.2-.4 4.6-2 .4-1.6 1.4-2 4.4-2 3.2 0 3.9-.3 3.9-2s.7-2 4-2 4-.3 4-2c0-1.3.7-2 2-2 1.5 0 2-.7 2-2.5 0-2.3.4-2.5 4.5-2.5 3.8 0 4.5-.3 4.5-2s.7-2 4-2 4-.3 4-2 .7-2 4-2 4-.3 4-2c0-1.4.7-2 2.1-2 1.2 0 2.3-.8 2.6-2 .4-1.6 1.4-2 4.4-2 3.2 0 3.9-.3 3.9-2s.7-2 4-2c3.6 0 4-.3 4-2.5 0-1.8.5-2.5 2-2.5 1.3 0 2-.7 2-2 0-1.7.7-2 4.5-2s4.5-.3 4.5-2 .7-2 4-2 4-.3 4-2 .7-2 4-2 4-.3 4-2c0-1.4.7-2 2.1-2 1.2 0 2.3-.8 2.6-1.9.4-1.4 1.5-2.1 4.2-2.3 2.9-.2 3.7-.8 3.9-2.6.3-1.8 1-2.2 4.3-2.2 3.2 0 3.9-.3 3.9-2s.7-2 4.5-2 4.5-.3 4.5-2c0-1.3.7-2 2-2s2-.7 2-2c0-1.7.7-2 4-2s4-.3 4-2 .7-2 4-2 4-.3 4-1.9c0-1.6.8-2 4.3-2.3 3.5-.2 4.3-.7 4.5-2.6.2-1.4 1-2.2 2.3-2.2 1.2 0 1.9-.7 1.9-2 0-1.7.7-2 4-2s4-.3 4-2 .7-2 4.1-2c3.2 0 4.2-.4 4.6-2 .4-1.6 1.4-2 4.4-2 3.2 0 3.9-.3 3.9-2 0-1.3.7-2 2-2s2-.7 2-2c0-1.7.7-2 4-2 3.6 0 4-.3 4-2.5 0-2.3.4-2.5 4.5-2.5 3.8 0 4.5-.3 4.5-2 0-1.3.7-2 2-2s2-.7 2-2c0-1.7.7-2 4-2s4-.3 4-2 .7-2 4.1-2c3.2 0 4.2-.4 4.6-2 .4-1.6 1.4-2 4.4-2 3.2 0 3.9-.3 3.9-2 0-1.3.7-2 2-2 1.5 0 2-.7 2-2.5 0-2.3.4-2.5 4-2.5 3.3 0 4-.3 4-2s.7-2 4.5-2 4.5-.3 4.5-2 .7-2 4-2 4-.3 4-2c0-1.3.7-2 2-2s2-.7 2-2c0-1.7.7-2 4.1-2 3.2 0 4.2-.4 4.6-1.9.4-1.4 1.5-2.1 4.2-2.3 2.9-.2 3.7-.8 3.9-2.6.3-1.8 1-2.2 4.3-2.2 3.2 0 3.9-.3 3.9-2 0-1.3.7-2 2-2s2-.7 2-2c0-1.7.7-2 4.5-2s4.5-.3 4.5-2 .7-2 4-2 4-.3 4-2 .7-2 4-2 4-.3 4-1.9c0-1.3.8-2.1 2.3-2.3 1.4-.2 2.3-1.1 2.5-2.6.3-1.8 1-2.2 4.3-2.2 3.2 0 3.9-.3 3.9-2s.7-2 4-2 4-.3 4-2c0-1.3.7-2 2-2s2-.7 2-2c0-1.7.7-2 4.5-2s4.5-.3 4.5-2 .7-2 4-2 4-.3 4-2 .7-2 4-2c3.6 0 4-.3 4-2.5 0-1.9.5-2.5 2.1-2.5 1.2 0 2.3-.8 2.6-2 .4-1.6 1.4-2 4.4-2 3.2 0 3.9-.3 3.9-2s.7-2 4-2 4-.3 4-2 .7-2 4.1-2c3.2 0 4.2-.4 4.6-2 .3-1.1 1.4-2 2.4-2 1.2 0 1.9-.7 1.9-2 0-1.7.7-2 4-2 3.6 0 4-.3 4-2.5 0-2.3.4-2.5 4-2.5 3.3 0 4-.3 4-2s.7-2 4.5-2 4.5-.3 4.5-2c0-1.3.7-2 2-2s2-.7 2-2c0-1.7.7-2 4-2s4-.3 4-2 .7-2 4.1-2c3.2 0 4.2-.4 4.6-1.9.4-1.4 1.5-2.1 4.2-2.3 2.9-.2 3.7-.8 3.9-2.6.2-1.4 1-2.2 2.3-2.2 1.2 0 1.9-.7 1.9-2 0-1.7.7-2 4-2s4-.3 4-2 .7-2 4.5-2 4.5-.3 4.5-2c0-1.3.7-2 2-2s2-.7 2-2c0-1.7.7-2 4-2s4-.3 4-1.9c0-1.6.8-2 4.3-2.3 3.5-.2 4.3-.7 4.5-2.6.3-1.8 1-2.2 4.3-2.2 3.2 0 3.9-.3 3.9-2 0-1.3.7-2 2-2s2-.7 2-2c0-1.7.7-2 4-2s4-.3 4-2 .7-2 4.5-2 4.5-.3 4.5-2 .7-2 4-2 4-.3 4-2c0-1.3.7-2 2-2 1.5 0 2-.7 2-2.5 0-2.3.4-2.5 4.1-2.5 3.2 0 4.2-.4 4.6-2 .4-1.6 1.4-2 4.4-2 3.2 0 3.9-.3 3.9-2s.7-2 4-2 4-.3 4-2c0-1.3.7-2 2-2s2-.7 2-2c0-1.7.7-2 4.5-2h4.5v-6.5c0-5.7-.2-6.5-1.9-6.5-1 0-2.1-.9-2.4-2-.3-1.2-1.4-2-2.6-2-1.4 0-2.1-.6-2.1-2 0-1.3-.7-2-2-2s-2-.7-2-2-.7-2-2-2-2-.7-2-2c0-1.7-.7-2-4-2-3.4 0-4-.3-4-2.1 0-1.2-.8-2.3-1.9-2.6-1.1-.3-2.1-1.3-2.4-2.4-.3-1.1-1.4-1.9-2.6-1.9-1.4 0-2.1-.6-2.1-2 0-1.3-.7-2-2-2s-2-.7-2-2-.7-2-2-2-2-.7-2-2-.7-2-2-2-2-.7-2-2c0-1.7-.7-2-3.9-2-3.3 0-4-.4-4.3-2.3-.2-1.4-1.1-2.3-2.5-2.5-1.5-.2-2.3-1-2.3-2.3 0-1.2-.7-1.9-2-1.9s-2-.7-2-2-.7-2-2-2-2-.7-2-2c0-1.8-.7-2-8.5-2s-8.5.2-8.5 2z"></path><path d="M1447 225c0 1.7-.7 2-4 2s-4 .3-4 2-.7 2-4.5 2-4.5.3-4.5 2-.7 2-4 2c-3.6 0-4 .2-4 2.5 0 1.8-.5 2.5-2 2.5-1.3 0-2 .7-2 2 0 1.7-.7 2-4.5 2s-4.5.3-4.5 2-.7 2-4 2-4 .3-4 2-.7 2-4 2-4 .3-4 2c0 1.3-.7 2-2 2s-2 .7-2 1.9c0 1.6-.8 2-4.2 2.3-3.6.2-4.4.7-4.6 2.5-.3 1.9-1 2.3-4.3 2.3-3.2 0-3.9.3-3.9 2s-.7 2-4 2-4 .3-4 2c0 1.5-.7 2-2.5 2s-2.5.5-2.5 2c0 1.7-.7 2-4 2s-4 .3-4 2-.7 2-4 2-4 .3-4 1.9c0 1.6-.8 2-4.2 2.3-3.6.2-4.4.7-4.6 2.5-.2 1.5-1 2.3-2.3 2.3-1.2 0-1.9.7-1.9 2 0 1.7-.7 2-4 2s-4 .3-4 2-.7 2-4 2-4 .3-4 2c0 1.5-.7 2-2.5 2s-2.5.5-2.5 2c0 1.7-.7 2-4 2s-4 .3-4 2-.7 2-4 2c-3.6 0-4 .2-4 2.5s-.4 2.5-4.5 2.5c-3.8 0-4.5.3-4.5 2 0 1.3-.7 2-2 2s-2 .7-2 2c0 1.7-.7 2-4 2s-4 .3-4 2-.7 2-4 2-4 .3-4 2-.7 2-4.5 2-4.5.3-4.5 2c0 1.3-.7 2-2 2-1.5 0-2 .7-2 2.5 0 2.2-.4 2.5-4 2.5-3.3 0-4 .3-4 2s-.7 2-4.5 2-4.5.3-4.5 2-.7 2-4 2-4 .3-4 2c0 1.3-.7 2-2 2s-2 .7-2 2c0 1.7-.7 2-4 2s-4 .3-4 1.9c0 1.6-.8 2-4.2 2.3-3.6.2-4.4.7-4.6 2.5-.3 1.9-1 2.3-4.3 2.3-3.2 0-3.9.3-3.9 2 0 1.3-.7 2-2 2s-2 .7-2 2c0 1.7-.7 2-4.5 2s-4.5.3-4.5 2-.7 2-4 2-4 .3-4 2c0 1.3-.7 2-2 2s-2 .7-2 2c0 1.7-.7 2-4 2-3.6 0-4 .2-4 2.5s-.4 2.5-4.5 2.5c-3.8 0-4.5.3-4.5 2s-.7 2-4 2-4 .3-4 2c0 1.3-.7 2-2 2s-2 .7-2 2c0 1.7-.7 2-4.5 2s-4.5.3-4.5 2-.7 2-4 2-4 .3-4 2-.7 2-4 2c-3.6 0-4 .2-4 2.5 0 1.8-.5 2.5-2 2.5-1.3 0-2 .7-2 2 0 1.7-.7 2-4.5 2s-4.5.3-4.5 2-.7 2-4 2-4 .3-4 2-.7 2-4 2-4 .3-4 2c0 1.4-.7 2-2.1 2-1.2 0-2.3.8-2.6 2-.4 1.6-1.4 2-4.4 2-3.5 0-3.9.3-3.9 2.5s-.4 2.5-4 2.5c-3.3 0-4 .3-4 2s-.7 2-4.5 2-4.5.3-4.5 2c0 1.3-.7 2-2 2s-2 .7-2 2c0 1.7-.7 2-4 2s-4 .3-4 2-.7 2-4 2-4 .3-4 1.9c0 1.3-.8 2.1-2.2 2.3-1.5.2-2.4 1.1-2.6 2.5-.3 1.9-1 2.3-4.3 2.3-3.2 0-3.9.3-3.9 2s-.7 2-4 2-4 .3-4 2-.7 2-4.5 2-4.5.3-4.5 2c0 1.3-.7 2-2 2s-2 .7-2 2c0 1.7-.7 2-4 2s-4 .3-4 2-.7 2-4 2c-3.6 0-4 .2-4 2.5s-.4 2.5-4.5 2.5c-3.8 0-4.5.3-4.5 2 0 1.3-.7 2-2 2s-2 .7-2 2c0 1.7-.7 2-4 2s-4 .3-4 2-.7 2-4.5 2-4.5.3-4.5 2-.7 2-4 2-4 .3-4 2c0 1.3-.7 2-2 2-1.5 0-2 .7-2 2.5 0 2.2-.4 2.5-4 2.5-3.3 0-4 .3-4 2s-.7 2-4.5 2-4.5.3-4.5 2-.7 2-4 2-4 .3-4 2c0 1.3-.7 2-2 2s-2 .7-2 2c0 1.7-.7 2-4.1 2-3.2 0-4.2.4-4.6 2-.4 1.6-1.4 2-4.4 2-3.5 0-3.9.3-3.9 2.5 0 1.8-.5 2.5-2 2.5-1.3 0-2 .7-2 2 0 1.7-.7 2-4 2s-4 .3-4 2-.7 2-4.5 2-4.5.3-4.5 2-.7 2-4 2-4 .3-4 2c0 1.3-.7 2-2 2s-2 .7-2 1.9c0 1.6-.8 2-4.2 2.3-3.6.2-4.4.7-4.6 2.5-.3 1.9-1 2.3-4.3 2.3-3.2 0-3.9.3-3.9 2s-.7 2-4 2-4 .3-4 2c0 1.3-.7 2-2 2s-2 .7-2 2c0 1.7-.7 2-4.5 2s-4.5.3-4.5 2-.7 2-4 2-4 .3-4 2-.7 2-4 2c-3.6 0-4 .2-4 2.5 0 2-.5 2.5-2.5 2.5-1.8 0-2.5.5-2.5 2 0 1.7-.7 2-4 2s-4 .3-4 2-.7 2-4 2-4 .3-4 2-.7 2-4.5 2-4.5.3-4.5 2c0 1.3-.7 2-2 2s-2 .7-2 2c0 1.7-.7 2-4 2-3.6 0-4 .2-4 2.5 0 2.2-.4 2.5-4 2.5-3.3 0-4 .3-4 2 0 1.5-.7 2-2.5 2s-2.5.5-2.5 2c0 1.7-.7 2-4 2s-4 .3-4 2-.7 2-4 2-4 .3-4 2-.7 2-4.1 2c-3.2 0-4.2.4-4.6 1.9-.3 1.1-1.3 2.1-2.4 2.4-1.1.3-1.9 1.4-1.9 2.6 0 1.8-.6 2.1-4 2.1-3.3 0-4 .3-4 2s-.7 2-4 2-4 .3-4 2-.7 2-4.5 2-4.5.3-4.5 2c0 1.3-.7 2-2 2s-2 .7-2 2c0 1.7-.7 2-4 2s-4 .3-4 1.9c0 1.6-.8 2-4.2 2.3-3.6.2-4.4.7-4.6 2.5-.3 1.9-1 2.3-4.3 2.3-3.2 0-3.9.3-3.9 2 0 1.3-.7 2-2 2s-2 .7-2 2c0 1.7-.7 2-4 2s-4 .3-4 2-.7 2-4.5 2-4.5.3-4.5 2-.7 2-4 2-4 .3-4 2c0 1.3-.7 2-2 2-1.5 0-2 .7-2 2.5 0 2.3-.4 2.5-4.5 2.5-3.8 0-4.5.3-4.5 2s-.7 2-4 2-4 .3-4 2-.7 2-4 2-4 .3-4 2c0 1.3-.7 2-2 2s-2 .7-2 2c0 1.7-.7 2-4.5 2s-4.5.3-4.5 2-.7 2-4 2c-3.6 0-4 .2-4 2.5 0 1.8-.5 2.5-2 2.5-1.3 0-2 .7-2 2 0 1.7-.7 2-4.5 2s-4.5.3-4.5 2-.7 2-4 2-4 .3-4 2-.7 2-4 2-4 .3-4 2c0 1.3-.7 2-2 2s-2 .7-2 1.9c0 1.6-.8 2-4.2 2.3-3.6.2-4.4.7-4.6 2.5-.3 1.9-1 2.3-4.3 2.3-3.2 0-3.9.3-3.9 2s-.7 2-4 2-4 .3-4 2c0 1.5-.7 2-2.5 2s-2.5.5-2.5 2c0 1.7-.7 2-4 2s-4 .3-4 2-.7 2-4 2-4 .3-4 2-.7 2-4.5 2-4.5-.3-4.5-2-.7-2-4-2-4-.3-4-2-.7-2-4-2-4-.3-4-2c0-1.3-.7-2-2-2s-2-.7-2-2c0-1.7-.7-2-4.5-2s-4.5-.3-4.5-2-.7-2-3.9-2c-3.3 0-4-.4-4.3-2.3-.2-1.7-1-2.3-3.9-2.5-2.7-.2-3.8-.9-4.2-2.3-.3-1.1-1.4-1.9-2.6-1.9-1.4 0-2.1-.6-2.1-2 0-1.7-.7-2-4-2s-4-.3-4-2-.7-2-4-2-4-.3-4-2c0-1.3-.7-2-2-2s-2-.7-2-2c0-1.7-.7-2-4.5-2-4.1 0-4.5-.2-4.5-2.5s-.4-2.5-4-2.5c-3.3 0-4-.3-4-2s-.7-2-3.9-2c-3 0-4-.4-4.4-2-.3-1.2-1.4-2-2.6-2-1.4 0-2.1-.6-2.1-2 0-1.7-.7-2-4-2s-4-.3-4-2-.7-2-4-2-4-.3-4-2-.7-2-4.5-2c-4.1 0-4.5-.2-4.5-2.5 0-1.8-.5-2.5-2-2.5-1.3 0-2-.7-2-2 0-1.7-.7-2-4-2s-4-.3-4-2-.7-2-4-2-4-.3-4-2-.7-2-4.5-2-4.5-.3-4.5-2c0-1.3-.7-2-2-2s-2-.7-2-2c0-1.7-.7-2-3.9-2-3.3 0-4-.4-4.3-2.3-.2-1.8-1-2.3-4.5-2.5-3.5-.3-4.3-.7-4.3-2.3 0-1.6-.7-1.9-4-1.9s-4-.3-4-2c0-1.3-.7-2-2-2s-2-.7-2-2c0-1.7-.7-2-4-2s-4-.3-4-2-.7-2-4.5-2-4.5-.3-4.5-2c0-1.3-.7-2-2-2-1.5 0-2-.7-2-2.5 0-2.3-.4-2.5-4-2.5-3.3 0-4-.3-4-2s-.7-2-4.5-2-4.5-.3-4.5-2-.7-2-4-2-4-.3-4-2c0-1.3-.7-2-2-2s-2-.7-2-2c0-1.7-.7-2-4-2s-4-.3-4-2-.7-2-4.5-2c-4.1 0-4.5-.2-4.5-2.5s-.4-2.5-4-2.5c-3.3 0-4-.3-4-2 0-1.3-.7-2-2-2s-2-.7-2-2c0-1.7-.7-2-4.5-2s-4.5-.3-4.5-2-.7-2-4-2-4-.3-4-2-.7-2-4-2-4-.3-4-2c0-1.3-.7-2-1.9-2-1.3 0-2.1-.8-2.3-2.3-.2-1.8-1-2.3-4.5-2.5-3.5-.3-4.3-.7-4.3-2.3 0-1.6-.7-1.9-4-1.9s-4-.3-4-2-.7-2-4-2-4-.3-4-2c0-1.5-.7-2-2.5-2s-2.5-.5-2.5-2c0-1.7-.7-2-4-2s-4-.3-4-2-.7-2-4-2c-3.4 0-4-.3-4-2.1 0-1.2-.8-2.3-1.9-2.6-1.1-.3-2.1-1.3-2.4-2.4-.4-1.5-1.4-1.9-4.6-1.9-3.4 0-4.1-.3-4.1-2s-.7-2-4-2-4-.3-4-2-.7-2-4-2-4-.3-4-2c0-1.5-.7-2-2.5-2s-2.5-.5-2.5-2c0-1.7-.7-2-4-2-3.6 0-4-.3-4-2.5 0-2.3-.4-2.5-4-2.5-3.3 0-4-.3-4-2s-.7-2-4.5-2-4.5-.3-4.5-2c0-1.3-.7-2-2-2s-2-.7-2-2c0-1.7-.7-2-4-2s-4-.3-4-2-.7-2-4-2-4-.3-4-2-.7-2-4.5-2c-4.1 0-4.5-.2-4.5-2.5 0-1.8-.5-2.5-2-2.5-1.3 0-2-.7-2-2 0-1.7-.7-2-4-2s-4-.3-4-2c0-1.8-.7-2-6.5-2H55v4c0 3.3-.3 4-2 4-1.8 0-2 .7-2 6.5s-.2 6.5-2 6.5-2 .7-2 8.5-.2 8.5-2 8.5-2 .7-2 8-.2 8-2 8c-1.9 0-2 .7-2 10.5V577h-5v25h4.5c3.8 0 4.5.3 4.5 2s.7 2 4 2 4 .3 4 2c0 1.3.7 2 1.9 2 1.3 0 2.1.8 2.3 2.2.2 1.9 1 2.4 4.6 2.6 3.4.3 4.2.7 4.2 2.3 0 1.6.7 1.9 4 1.9s4 .3 4 2 .7 2 4 2 4 .3 4 2c0 1.3.7 2 2 2s2 .7 2 2c0 1.7.7 2 4.5 2s4.5.3 4.5 2 .7 2 4 2c3.6 0 4 .2 4 2.5 0 1.8.5 2.5 2 2.5 1.3 0 2 .7 2 2 0 1.7.7 2 4.5 2s4.5.3 4.5 2 .7 2 4 2 4 .3 4 2 .7 2 4 2 4 .3 4 2c0 1.3.7 2 2 2s2 .7 2 2c0 1.7.7 2 4.5 2 4.1 0 4.5.2 4.5 2.5 0 2.2.4 2.5 4 2.5 3.3 0 4 .3 4 2s.7 2 4 2 4 .3 4 2c0 1.5.7 2 2.5 2s2.5.5 2.5 2c0 1.7.7 2 4 2s4 .3 4 2 .7 2 4 2 4 .3 4 2 .7 2 4.5 2c4.1 0 4.5.2 4.5 2.5 0 1.8.5 2.5 2 2.5 1.3 0 2 .7 2 2 0 1.7.7 2 4 2s4 .3 4 2 .7 2 4 2 4 .3 4 2 .7 2 4.5 2 4.5.3 4.5 2c0 1.3.7 2 2 2s2 .7 2 2c0 1.7.7 2 3.9 2 3.3 0 4 .4 4.3 2.2.2 1.9 1 2.4 4.6 2.6 3.4.3 4.2.7 4.2 2.3 0 1.2.7 1.9 2 1.9s2 .7 2 2c0 1.7.7 2 4 2s4 .3 4 2 .7 2 4 2 4 .3 4 2 .7 2 4.5 2 4.5.3 4.5 2c0 1.3.7 2 2 2 1.5 0 2 .7 2 2.5 0 2.2.4 2.5 4 2.5 3.3 0 4 .3 4 2s.7 2 4.5 2 4.5.3 4.5 2 .7 2 4 2 4 .3 4 2c0 1.3.7 2 2 2s2 .7 2 2c0 1.7.7 2 4 2s4 .3 4 2 .7 2 4.5 2c4.1 0 4.5.2 4.5 2.5 0 2.2.4 2.5 4 2.5 3.3 0 4 .3 4 2 0 1.3.7 2 2 2s2 .7 2 2c0 1.7.7 2 4.5 2s4.5.3 4.5 2 .7 2 4 2 4 .3 4 2 .7 2 4 2 4 .3 4 2c0 1.3.7 2 1.9 2 1.3 0 2.1.8 2.3 2.2.2 1.9 1 2.4 4.6 2.6 3.4.3 4.2.7 4.2 2.3 0 1.6.7 1.9 4 1.9s4 .3 4 2c0 1.3.7 2 2 2s2 .7 2 2c0 1.7.7 2 4.5 2s4.5.3 4.5 2 .7 2 4 2 4 .3 4 2 .7 2 4 2c3.4 0 4 .3 4 2.1 0 1.2.8 2.3 1.9 2.6 1.1.3 2.1 1.3 2.4 2.4.4 1.5 1.4 1.9 4.6 1.9 3.4 0 4.1.3 4.1 2s.7 2 4 2 4 .3 4 2 .7 2 4 2 4 .3 4 2c0 1.5.7 2 2.5 2s2.5.5 2.5 2c0 1.7.7 2 4 2 3.6 0 4 .2 4 2.5 0 2.2.4 2.5 4 2.5 3.3 0 4 .3 4 2s.7 2 4.5 2 4.5.3 4.5 2c0 1.3.7 2 2 2s2 .7 2 2c0 1.7.7 2 4 2s4 .3 4 2 .7 2 4 2 4 .3 4 2 .7 2 4.5 2c4.1 0 4.5.2 4.5 2.5 0 1.8.5 2.5 2 2.5 1.3 0 2 .7 2 2 0 1.7.7 2 4 2s4 .3 4 2c0 1.8.7 2 8.5 2s8.5-.2 8.5-2c0-1.7.7-2 4-2s4-.3 4-1.9c0-1.6.8-2 4.2-2.3 3.6-.2 4.4-.7 4.6-2.6.2-1.4 1-2.2 2.3-2.2 1.2 0 1.9-.7 1.9-2 0-1.7.7-2 4-2s4-.3 4-2 .7-2 4-2 4-.3 4-2 .7-2 4.5-2 4.5-.3 4.5-2c0-1.3.7-2 2-2s2-.7 2-2c0-1.7.7-2 4-2 3.6 0 4-.3 4-2.5 0-2.3.4-2.5 4.5-2.5 3.8 0 4.5-.3 4.5-2 0-1.3.7-2 2-2s2-.7 2-2c0-1.7.7-2 4-2s4-.3 4-2 .7-2 4-2 4-.3 4-2 .7-2 4.5-2c3.7 0 4.5-.3 4.5-1.9 0-1 .9-2.1 2-2.4 1.2-.3 2-1.4 2-2.6 0-1.8.6-2.1 4-2.1 3.3 0 4-.3 4-2s.7-2 4.5-2 4.5-.3 4.5-2 .7-2 4-2 4-.3 4-2c0-1.3.7-2 2-2s2-.7 2-2c0-1.7.7-2 4-2s4-.3 4-1.9c0-1.6.8-2 4.3-2.3 3.5-.2 4.3-.7 4.5-2.6.3-1.8 1-2.2 4.3-2.2 3.2 0 3.9-.3 3.9-2 0-1.3.7-2 2-2s2-.7 2-2c0-1.7.7-2 4.1-2 3.2 0 4.2-.4 4.6-2 .4-1.6 1.4-2 4.4-2 3.2 0 3.9-.3 3.9-2s.7-2 4-2 4-.3 4-2c0-1.3.7-2 2-2 1.5 0 2-.7 2-2.5 0-2.3.4-2.5 4.5-2.5 3.8 0 4.5-.3 4.5-2s.7-2 4-2 4-.3 4-2c0-1.3.7-2 2-2s2-.7 2-2c0-1.7.7-2 4.1-2 3.2 0 4.2-.4 4.6-2 .4-1.6 1.4-2 4.4-2 3.2 0 3.9-.3 3.9-2s.7-2 4-2c3.6 0 4-.3 4-2.5 0-1.8.5-2.5 2-2.5 1.3 0 2-.7 2-2 0-1.7.7-2 4.5-2s4.5-.3 4.5-2 .7-2 4-2 4-.3 4-2 .7-2 4-2 4-.3 4-2c0-1.4.7-2 2.1-2 1.2 0 2.3-.8 2.6-1.9.4-1.4 1.5-2.1 4.2-2.3 2.9-.2 3.7-.8 3.9-2.6.3-1.8 1-2.2 4.3-2.2 3.2 0 3.9-.3 3.9-2s.7-2 4.5-2 4.5-.3 4.5-2c0-1.3.7-2 2-2s2-.7 2-2c0-1.7.7-2 4-2s4-.3 4-2 .7-2 4-2 4-.3 4-1.9c0-1.6.8-2 4.3-2.3 3.5-.2 4.3-.7 4.5-2.6.2-1.4 1-2.2 2.3-2.2 1.2 0 1.9-.7 1.9-2 0-1.7.7-2 4-2s4-.3 4-2 .7-2 4.1-2c3.2 0 4.2-.4 4.6-2 .3-1.1 1.4-2 2.4-2 1.2 0 1.9-.7 1.9-2 0-1.7.7-2 4-2s4-.3 4-2 .7-2 4-2c3.6 0 4-.3 4-2.5 0-2.3.4-2.5 4.5-2.5 3.8 0 4.5-.3 4.5-2 0-1.3.7-2 2-2s2-.7 2-2c0-1.7.7-2 4-2s4-.3 4-2 .7-2 4.1-2c3.2 0 4.2-.4 4.6-2 .4-1.6 1.4-2 4.4-2 3.2 0 3.9-.3 3.9-2 0-1.3.7-2 2-2 1.5 0 2-.7 2-2.5 0-2.3.4-2.5 4-2.5 3.3 0 4-.3 4-2s.7-2 4.5-2 4.5-.3 4.5-2 .7-2 4-2 4-.3 4-2c0-1.3.7-2 2-2s2-.7 2-2c0-1.7.7-2 4.1-2 3.2 0 4.2-.4 4.6-1.9.4-1.4 1.5-2.1 4.2-2.3 2.9-.2 3.7-.8 3.9-2.6.3-1.8 1-2.2 4.3-2.2 3.2 0 3.9-.3 3.9-2 0-1.3.7-2 2-2s2-.7 2-2c0-1.7.7-2 4.5-2s4.5-.3 4.5-2 .7-2 4-2 4-.3 4-2c0-1.3.7-2 2-2s2-.7 2-1.9c0-1.6.8-2 4.3-2.3 3.5-.2 4.3-.7 4.5-2.6.3-1.8 1-2.2 4.3-2.2 3.2 0 3.9-.3 3.9-2s.7-2 4-2 4-.3 4-2c0-1.3.7-2 2-2s2-.7 2-2c0-1.7.7-2 4.5-2s4.5-.3 4.5-2 .7-2 4-2 4-.3 4-2 .7-2 4-2c3.6 0 4-.3 4-2.5 0-2 .5-2.5 2.5-2.5 1.8 0 2.5-.5 2.5-2 0-1.7.7-2 4-2s4-.3 4-2 .7-2 4-2 4-.3 4-2 .7-2 4.1-2c3.2 0 4.2-.4 4.6-2 .3-1.1 1.4-2 2.4-2 1.2 0 1.9-.7 1.9-2 0-1.7.7-2 4-2 3.6 0 4-.3 4-2.5 0-2.3.4-2.5 4-2.5 3.3 0 4-.3 4-2s.7-2 4.5-2 4.5-.3 4.5-2c0-1.3.7-2 2-2s2-.7 2-2c0-1.7.7-2 4-2s4-.3 4-2 .7-2 4.1-2c3.2 0 4.2-.4 4.6-1.9.3-1.1 1.3-2.1 2.4-2.4 1.1-.3 1.9-1.4 1.9-2.6 0-1.8.6-2.1 4-2.1 3.3 0 4-.3 4-2s.7-2 4-2 4-.3 4-2 .7-2 4.5-2 4.5-.3 4.5-2c0-1.3.7-2 2-2s2-.7 2-2c0-1.7.7-2 4-2s4-.3 4-1.9c0-1.6.8-2 4.3-2.3 3.5-.2 4.3-.7 4.5-2.6.3-1.8 1-2.2 4.3-2.2 3.2 0 3.9-.3 3.9-2 0-1.3.7-2 2-2s2-.7 2-2c0-1.7.7-2 4-2s4-.3 4-2 .7-2 4.5-2 4.5-.3 4.5-2 .7-2 4-2 4-.3 4-2c0-1.3.7-2 2-2 1.5 0 2-.7 2-2.5 0-2.3.4-2.5 4.1-2.5 3.2 0 4.2-.4 4.6-2 .4-1.6 1.4-2 4.4-2 3.2 0 3.9-.3 3.9-2s.7-2 4-2 4-.3 4-2c0-1.3.7-2 2-2s2-.7 2-2c0-1.7.7-2 4.5-2s4.5-.3 4.5-2 .7-2 4-2c3.6 0 4-.3 4-2.5 0-1.8.5-2.5 2-2.5 1.3 0 2-.7 2-2 0-1.7.7-2 4.1-2 3.2 0 4.2-.4 4.6-2 .4-1.6 1.4-2 4.4-2 3.2 0 3.9-.3 3.9-2s.7-2 4-2 4-.3 4-2c0-1.3.7-2 2-2s2-.7 2-1.9c0-1.6.8-2 4.3-2.3 3.5-.2 4.3-.7 4.5-2.6.3-1.8 1-2.2 4.3-2.2 3.2 0 3.9-.3 3.9-2s.7-2 4-2 4-.3 4-2c0-1.4.7-2 2.1-2 1.2 0 2.3-.8 2.6-2 .4-1.6 1.4-2 4.4-2 3.2 0 3.9-.3 3.9-2s.7-2 4-2 4-.3 4-1.9c0-1.6.8-2 4.3-2.3 3.5-.2 4.3-.7 4.5-2.6.2-1.4 1-2.2 2.3-2.2 1.2 0 1.9-.7 1.9-2 0-1.7.7-2 4-2s4-.3 4-2 .7-2 4-2 4-.3 4-2 .7-2 4.5-2 4.5-.3 4.5-2c0-1.3.7-2 2-2s2-.7 2-2c0-1.7.7-2 4-2 3.6 0 4-.3 4-2.5 0-2.3.4-2.5 4.1-2.5 3.2 0 4.2-.4 4.6-2 .3-1.1 1.4-2 2.4-2 1.2 0 1.9-.7 1.9-2 0-1.7.7-2 4-2s4-.3 4-2 .7-2 4-2 4-.3 4-2 .7-2 4.5-2c3.7 0 4.5-.3 4.5-1.9 0-1 .9-2.1 2-2.4 1.2-.3 2-1.4 2-2.6 0-1.8.6-2.1 4-2.1 3.3 0 4-.3 4-2s.7-2 4.1-2c3.2 0 4.2-.4 4.6-2 .4-1.6 1.4-2 4.4-2 3.2 0 3.9-.3 3.9-2 0-1.3.7-2 2-2s2-.7 2-2c0-1.7.7-2 4-2s4-.3 4-1.9c0-1.6.8-2 4.3-2.3 3.5-.2 4.3-.7 4.5-2.6.3-1.8 1-2.2 4.3-2.2 3.2 0 3.9-.3 3.9-2 0-1.3.7-2 2-2 1.8 0 2-.7 2-8s-.2-8-2-8c-1.5 0-2-.7-2-2.5s-.5-2.5-2-2.5c-1.7 0-2-.7-2-4s-.3-4-2-4c-1.3 0-2-.7-2-2s-.7-2-2-2c-1.4 0-2-.7-2-2.4 0-3.7-1-5.6-3.1-5.6-1.4 0-1.9-.7-1.9-2.5s-.5-2.5-2-2.5c-1.3 0-2-.7-2-2s-.7-2-2-2c-1.7 0-2-.7-2-4s-.3-4-2-4c-1.3 0-2-.7-2-2s-.7-2-2-2-2-.7-2-2-.7-2-1.9-2c-1.3 0-2.1-.8-2.3-2.3-.2-1.4-1.1-2.3-2.5-2.5-1.9-.3-2.3-1-2.3-4.3 0-3.2-.3-3.9-2-3.9-1.3 0-2-.7-2-2 0-1.7-.7-2-4-2s-4 .3-4 2z"></path><path d="M1539 375c0 1.7-.7 2-4.5 2s-4.5.3-4.5 2-.7 2-4 2-4 .3-4 2-.7 2-4 2c-3.6 0-4 .2-4 2.5 0 2-.5 2.5-2.5 2.5-1.8 0-2.5.5-2.5 2 0 1.7-.7 2-4 2s-4 .3-4 2-.7 2-4 2-4 .3-4 2-.7 2-4.5 2-4.5.3-4.5 2c0 1.3-.7 2-2 2s-2 .7-2 2c0 1.7-.7 2-4 2-3.6 0-4 .2-4 2.5 0 2.2-.4 2.5-4 2.5-3.3 0-4 .3-4 2s-.7 2-4.5 2-4.5.3-4.5 2c0 1.3-.7 2-2 2s-2 .7-2 2c0 1.7-.7 2-4 2s-4 .3-4 2-.7 2-4.5 2c-3.7 0-4.5.3-4.5 1.9 0 1-.9 2.1-2 2.4-1.2.3-2 1.4-2 2.6 0 1.8-.6 2.1-4 2.1-3.3 0-4 .3-4 2s-.7 2-4 2-4 .3-4 2-.7 2-4.5 2-4.5.3-4.5 2c0 1.3-.7 2-2 2s-2 .7-2 2c0 1.7-.7 2-4 2s-4 .3-4 1.9c0 1.6-.8 2-4.2 2.3-3.6.2-4.4.7-4.6 2.5-.3 1.9-1 2.3-4.3 2.3-3.2 0-3.9.3-3.9 2 0 1.3-.7 2-2 2s-2 .7-2 2c0 1.7-.7 2-4 2s-4 .3-4 2-.7 2-4.5 2-4.5.3-4.5 2-.7 2-4 2-4 .3-4 2c0 1.3-.7 2-2 2-1.5 0-2 .7-2 2.5 0 2.3-.4 2.5-4.5 2.5-3.8 0-4.5.3-4.5 2s-.7 2-4 2-4 .3-4 2-.7 2-4 2-4 .3-4 2c0 1.3-.7 2-2 2s-2 .7-2 2c0 1.7-.7 2-4.5 2s-4.5.3-4.5 2-.7 2-4 2c-3.6 0-4 .2-4 2.5 0 1.8-.5 2.5-2 2.5-1.3 0-2 .7-2 2 0 1.7-.7 2-4.5 2s-4.5.3-4.5 2-.7 2-4 2-4 .3-4 2-.7 2-4 2-4 .3-4 2c0 1.3-.7 2-2 2s-2 .7-2 1.9c0 1.6-.8 2-4.2 2.3-3.6.2-4.4.7-4.6 2.5-.3 1.9-1 2.3-4.3 2.3-3.2 0-3.9.3-3.9 2s-.7 2-4 2-4 .3-4 2c0 1.5-.7 2-2.5 2s-2.5.5-2.5 2c0 1.7-.7 2-4 2s-4 .3-4 2-.7 2-4 2-4 .3-4 1.9c0 1.6-.8 2-4.2 2.3-3.6.2-4.4.7-4.6 2.5-.2 1.5-1 2.3-2.3 2.3-1.2 0-1.9.7-1.9 2 0 1.7-.7 2-4 2s-4 .3-4 2-.7 2-4 2-4 .3-4 2-.7 2-4.5 2-4.5.3-4.5 2c0 1.3-.7 2-2 2s-2 .7-2 2c0 1.7-.7 2-4 2-3.6 0-4 .2-4 2.5s-.4 2.5-4.5 2.5c-3.8 0-4.5.3-4.5 2 0 1.3-.7 2-2 2s-2 .7-2 2c0 1.7-.7 2-4 2s-4 .3-4 2-.7 2-4 2-4 .3-4 2-.7 2-4.5 2-4.5.3-4.5 2c0 1.3-.7 2-2 2-1.5 0-2 .7-2 2.5 0 2.2-.4 2.5-4 2.5-3.3 0-4 .3-4 2s-.7 2-4.5 2-4.5.3-4.5 2-.7 2-4 2-4 .3-4 2c0 1.3-.7 2-2 2s-2 .7-2 2c0 1.7-.7 2-4 2s-4 .3-4 1.9c0 1.6-.8 2-4.2 2.3-3.6.2-4.4.7-4.6 2.5-.3 1.9-1 2.3-4.3 2.3-3.2 0-3.9.3-3.9 2 0 1.3-.7 2-2 2s-2 .7-2 2c0 1.7-.7 2-4.5 2s-4.5.3-4.5 2-.7 2-4 2-4 .3-4 2-.7 2-4 2-4 .3-4 2c0 1.3-.7 2-2 2-1.5 0-2 .7-2 2.5 0 2.3-.4 2.5-4.5 2.5-3.8 0-4.5.3-4.5 2s-.7 2-4 2-4 .3-4 2c0 1.3-.7 2-2 2s-2 .7-2 2c0 1.7-.7 2-4.5 2s-4.5.3-4.5 2-.7 2-4 2-4 .3-4 2-.7 2-4 2c-3.6 0-4 .2-4 2.5 0 1.8-.5 2.5-2 2.5-1.3 0-2 .7-2 2 0 1.7-.7 2-4.5 2s-4.5.3-4.5 2-.7 2-4 2-4 .3-4 2-.7 2-4 2-4 .3-4 2c0 1.4-.7 2-2.1 2-1.2 0-2.3.8-2.6 2-.4 1.6-1.4 2-4.4 2-3.5 0-3.9.3-3.9 2.5s-.4 2.5-4 2.5c-3.3 0-4 .3-4 2s-.7 2-4.5 2-4.5.3-4.5 2c0 1.3-.7 2-2 2s-2 .7-2 2c0 1.7-.7 2-4 2s-4 .3-4 2-.7 2-4 2-4 .3-4 1.9c0 1.6-.8 2-4.2 2.3-3.6.2-4.4.7-4.6 2.5-.2 1.5-1 2.3-2.3 2.3-1.2 0-1.9.7-1.9 2 0 1.7-.7 2-4 2s-4 .3-4 2-.7 2-4.5 2-4.5.3-4.5 2c0 1.3-.7 2-2 2s-2 .7-2 2c0 1.7-.7 2-4 2s-4 .3-4 2-.7 2-4 2c-3.6 0-4 .2-4 2.5s-.4 2.5-4.5 2.5c-3.8 0-4.5.3-4.5 2 0 1.3-.7 2-2 2s-2 .7-2 2c0 1.7-.7 2-4 2s-4 .3-4 2-.7 2-4.5 2-4.5.3-4.5 2-.7 2-4 2-4 .3-4 2c0 1.3-.7 2-2 2-1.5 0-2 .7-2 2.5 0 2.2-.4 2.5-4 2.5-3.3 0-4 .3-4 2s-.7 2-4.5 2-4.5.3-4.5 2-.7 2-4 2-4 .3-4 2c0 1.3-.7 2-2 2s-2 .7-2 2c0 1.7-.7 2-4.1 2-3.2 0-4.2.4-4.6 2-.4 1.6-1.4 2-4.4 2-3.5 0-3.9.3-3.9 2.5s-.4 2.5-4 2.5c-3.3 0-4 .3-4 2 0 1.3-.7 2-2 2s-2 .7-2 2c0 1.7-.7 2-4.5 2s-4.5.3-4.5 2-.7 2-4 2-4 .3-4 2c0 1.3-.7 2-2 2s-2 .7-2 1.9c0 1.6-.8 2-4.2 2.3-3.6.2-4.4.7-4.6 2.5-.3 1.9-1 2.3-4.3 2.3-3.2 0-3.9.3-3.9 2s-.7 2-4 2-4 .3-4 2c0 1.3-.7 2-2 2s-2 .7-2 2c0 1.7-.7 2-4.5 2s-4.5.3-4.5 2-.7 2-4 2-4 .3-4 2-.7 2-4 2c-3.6 0-4 .2-4 2.5 0 2-.5 2.5-2.5 2.5-1.8 0-2.5.5-2.5 2 0 1.7-.7 2-4 2s-4 .3-4 2-.7 2-4 2-4 .3-4 2-.7 2-4.5 2-4.5.3-4.5 2c0 1.3-.7 2-2 2s-2 .7-2 2c0 1.7-.7 2-4 2-3.6 0-4 .2-4 2.5 0 2.2-.4 2.5-4 2.5-3.3 0-4 .3-4 2s-.7 2-4.5 2-4.5.3-4.5 2c0 1.3-.7 2-2 2s-2 .7-2 2c0 1.7-.7 2-4 2s-4 .3-4 2-.7 2-4.1 2c-3.2 0-4.2.4-4.6 1.9-.3 1.1-1.3 2.1-2.4 2.4-1.1.3-1.9 1.4-1.9 2.6 0 1.8-.6 2.1-4 2.1-3.3 0-4 .3-4 2s-.7 2-4 2-4 .3-4 2-.7 2-4.5 2-4.5.3-4.5 2c0 1.3-.7 2-2 2s-2 .7-2 2c0 1.7-.7 2-4 2s-4 .3-4 1.9c0 1.6-.8 2-4.2 2.3-3.6.2-4.4.7-4.6 2.5-.3 1.9-1 2.3-4.3 2.3-3.2 0-3.9.3-3.9 2 0 1.3-.7 2-2 2s-2 .7-2 2c0 1.7-.7 2-4 2s-4 .3-4 2-.7 2-4.5 2-4.5.3-4.5 2-.7 2-4 2-4 .3-4 2c0 1.3-.7 2-2 2-1.5 0-2 .7-2 2.5 0 2.3-.4 2.5-4.5 2.5s-4.5-.2-4.5-2.5c0-1.8-.5-2.5-2-2.5-1.3 0-2-.7-2-2 0-1.7-.7-2-4-2s-4-.3-4-2-.7-2-4-2-4-.3-4-2-.7-2-4.5-2-4.5-.3-4.5-2c0-1.3-.7-2-2-2s-2-.7-2-2c0-1.7-.7-2-3.9-2-3.3 0-4-.4-4.3-2.3-.2-1.8-1-2.3-4.5-2.5-3.5-.3-4.3-.7-4.3-2.3 0-1.2-.7-1.9-2-1.9s-2-.7-2-2c0-1.7-.7-2-4-2s-4-.3-4-2-.7-2-4-2-4-.3-4-2-.7-2-4.5-2-4.5-.3-4.5-2c0-1.3-.7-2-2-2-1.5 0-2-.7-2-2.5 0-2.3-.4-2.5-4-2.5-3.3 0-4-.3-4-2s-.7-2-4.5-2-4.5-.3-4.5-2-.7-2-4-2-4-.3-4-2c0-1.3-.7-2-2-2s-2-.7-2-2c0-1.7-.7-2-4-2s-4-.3-4-2-.7-2-4.5-2c-4.1 0-4.5-.2-4.5-2.5s-.4-2.5-4-2.5c-3.3 0-4-.3-4-2 0-1.3-.7-2-2-2s-2-.7-2-2c0-1.7-.7-2-4.5-2s-4.5-.3-4.5-2-.7-2-4-2-4-.3-4-2-.7-2-4-2-4-.3-4-2c0-1.3-.7-2-1.9-2-1.3 0-2.1-.8-2.3-2.3-.2-1.8-1-2.3-4.6-2.5-3.4-.3-4.2-.7-4.2-2.3 0-1.6-.7-1.9-4-1.9s-4-.3-4-2c0-1.3-.7-2-2-2s-2-.7-2-2c0-1.7-.7-2-4.5-2s-4.5-.3-4.5-2-.7-2-4-2-4-.3-4-2-.7-2-4-2c-3.4 0-4-.3-4-2.1 0-1.2-.8-2.3-1.9-2.6-1.1-.3-2.1-1.3-2.4-2.4-.4-1.5-1.4-1.9-4.6-1.9-3.4 0-4.1-.3-4.1-2s-.7-2-4-2-4-.3-4-2-.7-2-4-2-4-.3-4-2c0-1.5-.7-2-2.5-2s-2.5-.5-2.5-2c0-1.7-.7-2-4-2-3.6 0-4-.3-4-2.5 0-2.3-.4-2.5-4-2.5-3.3 0-4-.3-4-2s-.7-2-4.5-2-4.5-.3-4.5-2c0-1.3-.7-2-2-2s-2-.7-2-2c0-1.7-.7-2-4-2s-4-.3-4-2-.7-2-4-2-4-.3-4-2-.7-2-4.5-2c-4.1 0-4.5-.2-4.5-2.5 0-1.8-.5-2.5-2-2.5-1.3 0-2-.7-2-2 0-1.7-.7-2-4-2s-4-.3-4-2-.7-2-4.5-2-4.5-.3-4.5-2c0-1.3-.7-2-2-2s-2-.7-2-2c0-1.7-.7-2-4-2s-4-.3-4-2-.7-2-3.9-2c-3.3 0-4-.4-4.3-2.3-.2-1.8-1-2.3-4.6-2.5-3.4-.3-4.2-.7-4.2-2.3 0-1.2-.7-1.9-2-1.9s-2-.7-2-2c0-1.7-.7-2-4-2s-4-.3-4-2-.7-2-4.5-2-4.5-.3-4.5-2-.7-2-4-2-4-.3-4-2c0-1.3-.7-2-2-2-1.5 0-2-.7-2-2.5 0-2.2-.4-2.5-3.9-2.5-3 0-4-.4-4.4-2-.4-1.6-1.4-2-4.6-2-3.4 0-4.1-.3-4.1-2s-.7-2-4-2-4-.3-4-2c0-1.3-.7-2-2-2s-2-.7-2-2c0-1.7-.7-2-4.5-2s-4.5-.3-4.5-2-.7-2-4-2c-3.6 0-4-.3-4-2.5 0-2.3-.4-2.5-4-2.5-3.3 0-4-.3-4-2 0-1.3-.7-2-2-2s-2-.7-2-2c0-1.7-.7-2-4.5-2s-4.5-.3-4.5-2-.7-2-4-2-4-.3-4-2c0-1.3-.7-2-2-2s-2-.7-2-2c0-1.7-.7-2-4.5-2-4.1 0-4.5-.2-4.5-2.5s-.3-2.5-5-2.5h-5v71c0 46.7.3 71 1 71 .6 0 1 6.2 1 16.5 0 15.8.1 16.5 2 16.5s2 .7 2 12.5.1 12.5 2 12.5 2 .7 2 12.5V910h5v10.5c0 9.8.1 10.5 2 10.5 1.8 0 2 .7 2 8.5s.2 8.5 2 8.5 2 .7 2 8.5.2 8.5 2 8.5 2 .7 2 6 .2 6 2 6 2 .7 2 6.1c0 5.2.3 6.2 2 6.6 1.7.5 2 1.4 2 6.4 0 5.6.1 5.9 2.5 5.9s2.5.2 2.5 6.5c0 5.8.2 6.5 2 6.5s2 .7 2 6 .2 6 2 6 2 .7 2 6.5.2 6.5 2 6.5c1.7 0 2 .7 2 4s.3 4 2 4c1.8 0 2 .7 2 6s.2 6 1.9 6c1.6 0 2 .8 2.3 4.2.2 3.6.7 4.4 2.6 4.6 1.8.3 2.2 1 2.2 4.3 0 3.2.3 3.9 2 3.9 1.8 0 2 .7 2 6.5s.2 6.5 2 6.5c1.7 0 2 .7 2 4s.3 4 2 4 2 .7 2 4 .3 4 2 4 2 .7 2 4.1c0 3.2.4 4.2 2 4.6 1.6.4 2 1.4 2 4.4 0 3.5.3 3.9 2.5 3.9 1.8 0 2.5.5 2.5 2 0 1.3.7 2 2 2 1.7 0 2 .7 2 4s.3 4 2 4 2 .7 2 4.5.3 4.5 2 4.5 2 .7 2 4 .3 4 2 4 2 .7 2 4 .3 4 1.9 4c1.3 0 2.1.8 2.3 2.2.2 1.5 1.1 2.4 2.6 2.6 1.8.3 2.2 1 2.2 4.3 0 3.2.3 3.9 2 3.9 1.3 0 2 .7 2 2s.7 2 2 2c1.7 0 2 .7 2 4s.3 4 2 4 2 .7 2 4.5.3 4.5 2 4.5c1.3 0 2 .7 2 2s.7 2 2 2 2 .7 2 2c0 1.5.7 2 2.5 2 2.3 0 2.5.4 2.5 4 0 3.3.3 4 2 4 1.5 0 2 .7 2 2.5s.5 2.5 2 2.5c1.7 0 2 .7 2 4s.3 4 2 4c1.3 0 2 .7 2 2s.7 2 2 2 2 .7 2 2 .7 2 1.9 2c1.6 0 2 .8 2.3 4.2.2 3.6.7 4.4 2.6 4.6 1.4.2 2.2 1 2.2 2.3 0 1.2.7 1.9 2 1.9s2 .7 2 2 .7 2 2 2c1.7 0 2 .7 2 4s.3 4 2 4c1.3 0 2 .7 2 2s.7 2 2 2c1.4 0 2 .7 2 2.1 0 1.2.8 2.3 1.9 2.6 1.1.3 2.1 1.3 2.4 2.4.3 1.1 1.4 1.9 2.6 1.9 1.4 0 2.1.6 2.1 2 0 1.3.7 2 2 2s2 .7 2 2 .7 2 2 2c1.7 0 2 .7 2 4s.3 4 2 4c1.5 0 2 .7 2 2.5s.5 2.5 2 2.5c1.3 0 2 .7 2 2s.7 2 2 2 2 .7 2 2c0 1.5.7 2 2.5 2s2.5.5 2.5 2c0 1.3.7 2 2 2s2 .7 2 2 .7 2 2 2 2 .7 2 2 .7 2 2 2c1.5 0 2 .7 2 2.5s.5 2.5 2 2.5c1.3 0 2 .7 2 2s.7 2 2 2 2 .7 2 2c0 1.5.7 2 2.5 2s2.5.5 2.5 2c0 1.3.7 2 2 2s2 .7 2 2 .7 2 2 2 2 .7 2 2 .7 2 2 2c1.5 0 2 .7 2 2.5s.5 2.5 2 2.5c1.3 0 2 .7 2 2s.7 2 2 2 2 .7 2 2c0 1.5.7 2 2.5 2s2.5.5 2.5 2c0 1.3.7 2 2 2s2 .7 2 2c0 1.7.7 2 4 2s4 .3 4 2c0 1.3.7 2 2 2 1.4 0 2 .7 2 2.1 0 1.2.8 2.3 1.9 2.6 1.1.3 2.1 1.3 2.4 2.4.3 1.1 1.4 1.9 2.6 1.9 1.4 0 2.1.6 2.1 2 0 1.3.7 2 2 2s2 .7 2 2c0 1.7.7 2 4 2s4 .3 4 2c0 1.3.7 2 2 2s2 .7 2 2 .7 2 1.9 2c1.3 0 2.1.8 2.3 2.2.2 1.9 1 2.4 4.6 2.6 3.4.3 4.2.7 4.2 2.3 0 1.2.7 1.9 2 1.9s2 .7 2 2 .7 2 2 2 2 .7 2 2c0 1.7.7 2 4 2s4 .3 4 2c0 1.5.7 2 2.5 2s2.5.5 2.5 2c0 1.7.7 2 4 2 3.6 0 4 .2 4 2.5 0 1.8.5 2.5 2 2.5 1.3 0 2 .7 2 2 0 1.7.7 2 4 2s4 .3 4 2c0 1.5.7 2 2.5 2s2.5.5 2.5 2c0 1.7.7 2 4 2s4 .3 4 2c0 1.3.7 2 2 2s2 .7 2 2c0 1.7.7 2 3.9 2 3.3 0 4 .4 4.3 2.2.2 1.9 1 2.4 4.6 2.6 3.4.3 4.2.7 4.2 2.3 0 1.2.7 1.9 2 1.9s2 .7 2 2c0 1.7.7 2 4 2s4 .3 4 2 .7 2 4.5 2 4.5.3 4.5 2 .7 2 4 2 4 .3 4 2c0 1.3.7 2 2 2 1.5 0 2 .7 2 2.5 0 2.2.4 2.5 3.9 2.5 3 0 4 .4 4.4 2 .4 1.7 1.4 2 6.6 2 5.4 0 6.1.2 6.1 2 0 1.7.7 2 4 2s4 .3 4 2 .7 2 4.5 2 4.5.3 4.5 2 .7 2 4 2 4 .3 4 2 .7 2 3.9 2c3.3 0 4 .4 4.3 2.2.2 1.9 1 2.4 4.5 2.6 3.5.3 4.3.7 4.3 2.3 0 1.7.7 1.9 6 1.9s6 .2 6 2 .7 2 6.5 2 6.5.2 6.5 2c0 1.7.7 2 4 2s4 .3 4 2c0 1.8.7 2 6 2s6 .2 6 2 .7 2 6.5 2c6.3 0 6.5.1 6.5 2.5s.3 2.5 5.9 2.5c5 0 5.9.3 6.4 2 .4 1.7 1.4 2 6.6 2 5.4 0 6.1.2 6.1 2s.7 2 8.5 2 8.5.2 8.5 2 .7 2 6 2 6 .2 6 2 .7 2 8.5 2 8.5.2 8.5 2c0 1.9.7 2 10.5 2H664v5h12.5c11.8 0 12.5.1 12.5 2s.7 2 12.5 2 12.5.1 12.5 2 .7 2 18.5 2c11.7 0 18.5.4 18.5 1 0 .7 26.3 1 77 1s77-.3 77-1c0-.6 7.7-1 21-1 20.3 0 21-.1 21-2s.7-2 14.5-2c13.7 0 14.5-.1 14.5-2 0-1.8.8-2 10.2-2.2 9.8-.3 10.3-.4 10.6-2.5.3-2.2.8-2.3 8.8-2.3 7.7 0 8.4-.2 8.4-2s.7-2 8-2 8-.2 8-2 .7-2 8.5-2 8.5-.2 8.5-2 .7-2 8.1-2c7.2 0 8.1-.2 8.6-2 .5-1.7 1.4-2 6.4-2 5.2 0 5.9-.2 5.9-2 0-1.6.8-1.9 6.3-2.2 5.6-.3 6.2-.5 6.5-2.5.3-2.1.9-2.3 6.3-2.3 5.2 0 5.9-.2 5.9-2s.7-2 6.1-2c5.2 0 6.2-.3 6.6-2 .4-1.6 1.4-2 4.4-2 3.2 0 3.9-.3 3.9-2 0-1.8.7-2 6-2s6-.2 6-2c0-1.7.7-2 4.5-2s4.5-.3 4.5-2c0-1.8.7-2 6-2 5.7 0 6-.1 6-2.5 0-2.3.4-2.5 4.1-2.5 3.2 0 4.2-.4 4.6-2 .4-1.6 1.4-2 4.4-2 3.2 0 3.9-.3 3.9-2s.7-2 4-2 4-.3 4-2 .7-2 4.1-2c3.2 0 4.2-.4 4.6-2 .4-1.6 1.4-2 4.4-2 3.2 0 3.9-.3 3.9-2s.7-2 4-2c3.6 0 4-.3 4-2.5 0-2.3.4-2.5 4.1-2.5 3.2 0 4.2-.4 4.6-2 .4-1.6 1.4-2 4.4-2 3.2 0 3.9-.3 3.9-2s.7-2 4-2 4-.3 4-2 .7-2 4.1-2c3.2 0 4.2-.4 4.6-2 .3-1.1 1.4-2 2.4-2 1.2 0 1.9-.7 1.9-2 0-1.7.7-2 4-2 3.6 0 4-.3 4-2.5 0-2.3.4-2.5 4-2.5 3.3 0 4-.3 4-2 0-1.4.7-2 2.1-2 1.2 0 2.3-.8 2.6-2 .4-1.6 1.4-2 4.4-2 3.2 0 3.9-.3 3.9-2 0-1.3.7-2 2-2s2-.7 2-2c0-1.7.7-2 4-2s4-.3 4-1.9c0-1.3.8-2.1 2.3-2.3 1.4-.2 2.3-1.1 2.5-2.6.3-1.8 1-2.2 4.3-2.2 3.2 0 3.9-.3 3.9-2 0-1.3.7-2 2-2s2-.7 2-2 .7-2 2-2 2-.7 2-2c0-1.7.7-2 4.1-2 3.2 0 4.2-.4 4.6-2 .3-1.1 1.4-2 2.4-2 1.2 0 1.9-.7 1.9-2 0-1.7.7-2 4-2 3.6 0 4-.3 4-2.5 0-1.8.5-2.5 2-2.5 1.3 0 2-.7 2-2s.7-2 2-2 2-.7 2-2c0-1.4.7-2 2.1-2 1.2 0 2.3-.8 2.6-2 .4-1.6 1.4-2 4.4-2 3.2 0 3.9-.3 3.9-2 0-1.3.7-2 2-2s2-.7 2-2 .7-2 2-2c1.5 0 2-.7 2-2.5s.5-2.5 2-2.5c1.3 0 2-.7 2-2 0-1.4.7-2 2.1-2 1.2 0 2.3-.8 2.6-2 .3-1.1 1.4-2 2.4-2 1.2 0 1.9-.7 1.9-2s.7-2 2-2 2-.7 2-2c0-1.7.7-2 4-2s4-.3 4-2c0-1.3.7-2 2-2 1.5 0 2-.7 2-2.5 0-1.9.5-2.5 2.1-2.5 1.2 0 2.3-.8 2.6-2 .3-1.1 1.4-2 2.4-2 1.2 0 1.9-.7 1.9-2s.7-2 2-2 2-.7 2-2 .7-2 2-2 2-.7 2-2 .7-2 2-2 2-.7 2-2 .7-2 2-2c1.5 0 2-.7 2-2.5 0-1.9.5-2.5 2.1-2.5 1.2 0 2.3-.8 2.6-2 .3-1.1 1.4-2 2.4-2 1.2 0 1.9-.7 1.9-2s.7-2 2-2 2-.7 2-2 .7-2 2-2 2-.7 2-2 .7-2 2-2c1.7 0 2-.7 2-4.5s.3-4.5 2-4.5c1.3 0 2-.7 2-2 0-1.4.7-2 2.1-2 1.2 0 2.3-.8 2.6-2 .3-1.1 1.4-2 2.4-2 1.2 0 1.9-.7 1.9-2s.7-2 2-2 2-.7 2-2 .7-2 2-2 2-.7 2-2 .7-2 2-2c1.7 0 2-.7 2-4.5s.3-4.5 2-4.5c1.3 0 2-.7 2-2 0-1.4.7-2 2.1-2 1.2 0 2.3-.8 2.6-2 .3-1.1 1.4-2 2.4-2 1.2 0 1.9-.7 1.9-2s.7-2 2-2c1.7 0 2-.7 2-4.5s.3-4.5 2-4.5c1.3 0 2-.7 2-2s.7-2 2-2 2-.7 2-2 .7-2 2-2c1.7 0 2-.7 2-4s.3-4 1.9-4c1.1 0 2.2-.9 2.6-1.9.3-1 1.5-2.1 2.5-2.4 1.2-.3 2-1.4 2-2.6 0-1.4.6-2.1 2-2.1 1.7 0 2-.7 2-4s.3-4 2-4c1.3 0 2-.7 2-2s.7-2 2-2c1.7 0 2-.7 2-4s.3-4 2-4c1.5 0 2-.7 2-2.5s.5-2.5 1.9-2.5c2.1 0 3.1-1.9 3.1-5.6 0-1.7.6-2.4 2-2.4 1.7 0 2-.7 2-4s.3-4 2-4c1.3 0 2-.7 2-2s.7-2 2-2c1.7 0 2-.7 2-4.5s.3-4.5 2-4.5 2-.7 2-4 .3-4 2-4c1.3 0 2-.7 2-2s.7-2 1.9-2c2.1 0 3.1-1.9 3.1-6.1 0-2.2.5-2.9 2-2.9 1.7 0 2-.7 2-4s.3-4 2-4 2-.7 2-4 .3-4 2-4 2-.7 2-4.5.3-4.5 2-4.5 2-.7 2-4 .3-4 2-4 2-.7 2-4 .4-4 1.9-4c2.1 0 3.1-1.9 3.1-6.1 0-2.2.5-2.9 2-2.9 1.7 0 2-.7 2-4s.3-4 2-4c1.8 0 2-.7 2-6s.2-6 2-6c1.7 0 2-.7 2-4.5s.3-4.5 2-4.5c1.8 0 2-.7 2-6s.2-6 2-6c1.7 0 2-.7 2-4.5 0-3.7.3-4.5 1.9-4.5 2.3 0 3.1-1.9 3.1-7.6 0-3.7.3-4.4 2-4.4 1.8 0 2-.7 2-6.5s.2-6.5 2-6.5 2-.7 2-6 .2-6 2-6 2-.7 2-6.5.2-6.5 2-6.5 2-.7 2-6 .2-6 2-6 2-.7 2-8.5c0-7.7.2-8.5 1.9-8.5 2.3 0 3.1-1.9 3.1-7.6 0-3.7.3-4.4 2-4.4 1.9 0 2-.7 2-10.5s.1-10.5 2-10.5c1.8 0 2-.7 2-8.5s.2-8.5 2-8.5c1.9 0 2-.7 2-12.5s.1-12.5 2-12.5 2-.7 2-12.5.1-12.5 2-12.5 2-.7 2-20.5c0-19.4.1-20.5 1.9-20.5 1 0 2.2-.7 2.5-1.6.8-2 .8-136.8 0-138.8-.3-.9-1.5-1.6-2.5-1.6-1.8 0-1.9-1-1.9-19 0-18.3-.1-19-2-19s-2-.7-2-14.5-.1-14.5-2-14.5-2-.7-2-12.5-.1-12.5-2-12.5c-1.8 0-2-.7-2-8s-.2-8-2-8c-1.9 0-2-.7-2-10.5s-.1-10.5-2-10.5c-1.8 0-2-.7-2-6.9 0-8.2-.6-10.1-3.1-10.1-1.7 0-1.9-.8-1.9-6 0-5.3-.2-6-2-6s-2-.7-2-8.5-.2-8.5-2-8.5-2-.7-2-6.5-.2-6.5-2-6.5-2-.7-2-6-.2-6-2-6c-1.7 0-2-.7-2-4s-.3-4-2-4-2-.7-2-4.9c0-6.2-.7-8.1-3.1-8.1-1.7 0-1.9-.8-1.9-6 0-5.3-.2-6-2-6-1.7 0-2-.7-2-4.5s-.3-4.5-2-4.5c-1.8 0-2-.7-2-6s-.2-6-2-6c-1.7 0-2-.7-2-4.1 0-3.2-.4-4.2-2-4.6-1.6-.4-2-1.4-2-4.4 0-3.2-.3-3.9-2-3.9-1.4 0-2-.7-2-2.4 0-3.7-1-5.6-3.1-5.6-1.6 0-1.9-.8-1.9-4.5 0-3.8-.3-4.5-2-4.5s-2-.7-2-4-.3-4-2-4c-1.3 0-2-.7-2-2 0-1.8-.7-2-6-2s-6 .2-6 2z"></path></svg><svg height="23" viewBox="0 0 24 24" width="23" id="shipping" y="167"><path d="M0 0h24v24H0z" fill="none"></path><path d="M20 8h-3V4H3c-1.1 0-2 .9-2 2v11h2c0 1.66 1.34 3 3 3s3-1.34 3-3h6c0 1.66 1.34 3 3 3s3-1.34 3-3h2v-5l-3-4zM6 18.5c-.83 0-1.5-.67-1.5-1.5s.67-1.5 1.5-1.5 1.5.67 1.5 1.5-.67 1.5-1.5 1.5zm13.5-9l1.96 2.5H17V9.5h2.5zm-1.5 9c-.83 0-1.5-.67-1.5-1.5s.67-1.5 1.5-1.5 1.5.67 1.5 1.5-.67 1.5-1.5 1.5z"></path></svg><svg fill="#565656" height="26" viewBox="0 0 24 24" width="26" id="time" y="190"><path d="M11.99 2C6.47 2 2 6.48 2 12s4.47 10 9.99 10C17.52 22 22 17.52 22 12S17.52 2 11.99 2zM12 20c-4.42 0-8-3.58-8-8s3.58-8 8-8 8 3.58 8 8-3.58 8-8 8z"></path><path d="M0 0h24v24H0z" fill="none"></path><path d="M12.5 7H11v6l5.25 3.15.75-1.23-4.5-2.67z"></path></svg><svg height="20" viewBox="0 0 24 24" width="20" id="time-small" y="216"><path d="M11.99 2C6.47 2 2 6.48 2 12s4.47 10 9.99 10C17.52 22 22 17.52 22 12S17.52 2 11.99 2zM12 20c-4.42 0-8-3.58-8-8s3.58-8 8-8 8 3.58 8 8-3.58 8-8 8z"></path><path d="M0 0h24v24H0z" fill="none"></path><path d="M12.5 7H11v6l5.25 3.15.75-1.23-4.5-2.67z"></path></svg><svg height="23" viewBox="0 0 24 24" width="23" id="wallet" y="236"><path d="M0 0h24v24H0z" fill="none"></path><path d="M21 18v1c0 1.1-.9 2-2 2H5a2 2 0 0 1-2-2V5a2 2 0 0 1 2-2h14c1.1 0 2 .9 2 2v1h-9a2 2 0 0 0-2 2v8a2 2 0 0 0 2 2h9zm-9-2h10V8H12v8zm4-2.5c-.83 0-1.5-.67-1.5-1.5s.67-1.5 1.5-1.5 1.5.67 1.5 1.5-.67 1.5-1.5 1.5z"></path></svg><svg fill="#ffba03" height="16" viewBox="0 0 24 24" width="16" y="257"><path d="M8.59 16.34l4.58-4.59-4.58-4.59L10 5.75l6 6-6 6z"/><path d="M0-.25h24v24H0z" fill="none"/></svg></svg>
